<svg width="66" height="63" viewBox="0 0 66 63" fill="none" xmlns="http://www.w3.org/2000/svg">
<path d="M7.25439 41.5312L7.55846 39.3656L11.8897 39.9737L11.5856 42.1394L7.25439 41.5312Z" fill="#C19444"/>
<path d="M16.2529 56.0547L16.5571 53.8884L18.7233 54.1926L18.4192 56.3588L16.2529 56.0547Z" fill="#C19444"/>
<path d="M65.9078 28.243L65.7175 26.0642L43.7758 27.9848C43.0509 28.0476 42.3674 28.3495 41.8329 28.8431C41.2983 29.3367 40.9429 29.994 40.8227 30.7116L39.8274 36.6856C39.7935 36.9912 39.8245 37.3004 39.9182 37.5931C40.0119 37.8859 40.1663 38.1556 40.3713 38.3847C40.5762 38.6138 40.8271 38.7972 41.1077 38.9228C41.3883 39.0484 41.6922 39.1135 41.9995 39.1137C42.0638 39.1141 42.1281 39.1112 42.1921 39.105L60.4752 37.5027L61.8106 52.7572L55.1869 53.3369C54.7697 51.5434 53.7193 49.9607 52.2288 48.8795C50.7382 47.7984 48.9075 47.2915 47.0731 47.4519C45.2388 47.6123 43.5239 48.4293 42.2436 49.7528C40.9633 51.0762 40.2036 52.8172 40.1041 54.6559L36.7496 54.9491C36.6067 54.9623 36.4626 54.9467 36.3259 54.9033C36.1891 54.8599 36.0624 54.7896 35.9533 54.6964C35.8428 54.6046 35.7516 54.4918 35.6849 54.3645C35.6183 54.2372 35.5775 54.098 35.565 53.9548L35.4699 52.8611L38.738 52.5745L38.5466 50.3958L35.2785 50.6856L35.18 49.5613L39.0322 47.2469C39.1746 47.1613 39.2956 47.0444 39.386 46.9051C39.4765 46.7657 39.534 46.6076 39.5543 46.4428C39.5745 46.2779 39.5569 46.1106 39.5028 45.9535C39.4488 45.7964 39.3596 45.6537 39.2422 45.5362L37.828 44.1231L39.2422 42.7089C39.3644 42.5863 39.4558 42.4365 39.5088 42.2718C39.5618 42.107 39.575 41.9321 39.5472 41.7612C39.5195 41.5904 39.4516 41.4286 39.3491 41.2891C39.2467 41.1496 39.1125 41.0365 38.9578 40.9589L35.1877 39.0733C35.2861 38.6872 35.3824 38.3 35.5081 37.9227L39.6228 27.9356C39.8506 27.3785 40.2278 26.8951 40.7128 26.5386C41.1977 26.1822 41.7717 25.9666 42.3714 25.9155L64.9169 23.9467C65.1644 23.9264 65.4134 23.933 65.6596 23.9664L65.9658 21.8008C65.5552 21.7438 65.1396 21.7328 64.7266 21.768L42.18 23.7367C41.1805 23.8221 40.224 24.1818 39.4158 24.7759C38.6076 25.3701 37.979 26.1759 37.5994 27.1044L33.4639 37.1669C32.9274 38.776 32.615 40.4513 32.5353 42.1456C32.2978 41.6008 31.9983 41.0852 31.6428 40.6089C31.0396 39.8041 30.2828 39.1269 29.4162 38.6165C28.5496 38.106 27.5904 37.7724 26.5941 37.635L24.8517 37.39L30.6738 33.5094L32.2269 35.0625L33.7735 33.5159L31.586 31.3284C31.4072 31.1496 31.1719 31.0382 30.9202 31.0133C30.6686 30.9884 30.4161 31.0514 30.2056 31.1917L22.3525 36.4264L15.1141 24.7441C14.6919 24.0625 14.1249 23.4823 13.4533 23.0445C12.7817 22.6067 12.0219 22.3221 11.228 22.2109L0.339707 20.6797L0.0356445 22.8464L10.9228 24.3777C11.3994 24.4439 11.8556 24.6144 12.2588 24.877C12.662 25.1396 13.0024 25.4878 13.2558 25.8969L13.9471 27.0114L0.339707 25.0995L0.0356445 27.2652L4.76174 27.9302L3.84846 34.4281L0.339707 33.9359L0.0356445 36.1016L3.54439 36.5948L1.41268 51.7586L0.339707 51.6077L0.0356445 53.7733L9.85861 55.1536C9.86614 57.1792 10.6761 59.1193 12.1111 60.549C13.5461 61.9787 15.4892 62.7814 17.5149 62.7814C19.1702 62.7767 20.7796 62.2365 22.1026 61.2415C23.4256 60.2466 24.3911 58.8503 24.855 57.2612L28.1899 57.7294C28.3431 57.7511 28.4977 57.7621 28.6525 57.7622C29.4426 57.7606 30.2057 57.474 30.8014 56.955C31.3972 56.436 31.7857 55.7195 31.8955 54.937L32.858 48.0825L33.3895 54.1452C33.4628 54.9607 33.8377 55.7195 34.441 56.2732C35.0442 56.8268 35.8323 57.1355 36.6511 57.1387C36.7474 57.1387 36.8436 57.1387 36.9399 57.1267L40.2955 56.8325C40.6909 58.5097 41.6398 60.0047 42.9893 61.0763C44.3387 62.1479 46.0098 62.7336 47.733 62.7388C47.9561 62.7388 48.1803 62.7289 48.4056 62.7092C50.2393 62.5502 51.954 61.7346 53.2344 60.4124C54.5148 59.0902 55.2749 57.3502 55.375 55.5123L65.9056 54.5903L65.7153 52.4116L63.9872 52.5625L62.6528 37.308L65.9056 37.0236L65.7153 34.8448L62.4625 35.138L61.8916 28.5919L65.9078 28.243ZM30.9439 45.9683L30.7908 47.0511L26.4596 46.4419L26.7636 44.2762L30.9866 44.8691C31.0089 45.236 30.9946 45.6042 30.9439 45.9683ZM6.92846 28.2342L15.4411 29.4308V29.4242L19.9485 36.6911L6.01408 34.7333L6.92846 28.2342ZM22.9235 55.8853C22.773 56.9565 22.3082 57.959 21.5879 58.7661C20.8677 59.5731 19.9242 60.1484 18.877 60.4192C17.8297 60.69 16.7256 60.6441 15.7044 60.2874C14.6832 59.9307 13.7907 59.2791 13.1399 58.4152C12.5286 57.604 12.1553 56.6386 12.0619 55.6272C11.9685 54.6158 12.1585 53.5983 12.6108 52.6889C13.0631 51.7794 13.7597 51.0139 14.6226 50.4781C15.4855 49.9423 16.4806 49.6574 17.4963 49.6553C17.7546 49.6553 18.0126 49.6732 18.2685 49.7089C19.7039 49.9125 21 50.6771 21.8726 51.8349C22.7453 52.9927 23.1231 54.4493 22.9235 55.8853ZM28.4906 55.5637L25.1547 55.0945C25.15 53.6749 24.7504 52.2846 24.0005 51.0793C23.2506 49.8739 22.18 48.901 20.9086 48.2695C19.6372 47.638 18.2151 47.3728 16.8015 47.5036C15.388 47.6343 14.0387 48.156 12.9047 49.01C11.5843 50.0028 10.6242 51.3996 10.1703 52.988L3.5783 52.0627L5.71002 36.9044L21.9533 39.1827L26.2856 39.7919C27.1289 39.8895 27.9352 40.1934 28.6332 40.6766C29.3312 41.1598 29.8994 41.8074 30.2877 42.5623L27.0644 42.1095C26.4902 42.0287 25.9074 42.1792 25.4441 42.5278C24.9808 42.8765 24.6749 43.3948 24.5936 43.9689L24.2896 46.1345C24.2084 46.7089 24.3587 47.2919 24.7074 47.7555C25.0561 48.219 25.5746 48.5251 26.1489 48.6064L30.4813 49.2145L30.1772 51.3813L26.9277 50.9252L26.6236 53.0908L29.8731 53.548L29.72 54.6308C29.6801 54.9172 29.5283 55.1762 29.2979 55.3511C29.0675 55.5259 28.7773 55.6024 28.4906 55.5637ZM36.6227 42.2353L35.5081 43.3498C35.3031 43.555 35.1879 43.8331 35.1879 44.1231C35.1879 44.4131 35.3031 44.6913 35.5081 44.8964L36.7058 46.0919L34.9678 47.1364L34.7392 44.5245C34.6479 43.4547 34.6607 42.3785 34.7775 41.3111L36.6227 42.2353ZM53.1886 54.6089C53.2829 55.6865 53.0556 56.7678 52.5354 57.7161C52.0151 58.6644 51.2253 59.4372 50.2659 59.9367C49.3064 60.4361 48.2204 60.6398 47.1452 60.5221C46.07 60.4043 45.0538 59.9703 44.2253 59.275C43.3967 58.5796 42.7929 57.6542 42.4903 56.6158C42.1877 55.5773 42.1999 54.4724 42.5252 53.4408C42.8506 52.4093 43.4745 51.4973 44.3182 50.8204C45.1619 50.1435 46.1873 49.7319 47.2649 49.6378C47.4267 49.6236 47.593 49.6159 47.7505 49.6159C49.1168 49.6184 50.4327 50.1323 51.4392 51.0563C52.4457 51.9804 53.0697 53.2478 53.1886 54.6089ZM60.286 35.337L41.993 36.9831L42.9828 31.0769C43.0229 30.8377 43.1414 30.6186 43.3196 30.4541C43.4977 30.2895 43.7256 30.1889 43.9672 30.168L59.7172 28.7898L60.286 35.337Z" fill="#C19444"/>
<path d="M43.2163 41.2109L47.5747 40.8302L47.7651 43.0094L43.4067 43.3901L43.2163 41.2109Z" fill="#C19444"/>
<path d="M46.5234 54.1016L48.7026 53.9112L48.893 56.0904L46.7138 56.2808L46.5234 54.1016Z" fill="#C19444"/>
<path d="M18.0077 25.2105L19.5543 23.664L18.1401 22.2498H20.9685C21.2586 22.2498 21.5368 22.1345 21.7419 21.9294C21.947 21.7243 22.0623 21.4461 22.0623 21.156V18.3276L25.664 21.9293C25.8691 22.1343 26.1472 22.2495 26.4373 22.2495C26.7273 22.2495 27.0054 22.1343 27.2106 21.9293L30.8123 18.3276V21.156C30.8123 21.4461 30.9275 21.7243 31.1326 21.9294C31.3377 22.1345 31.6159 22.2498 31.906 22.2498H35.8282L33.3202 24.7577L34.8668 26.3043L39.2418 21.9293C39.3947 21.7763 39.4988 21.5815 39.541 21.3693C39.5832 21.1572 39.5616 20.9373 39.4788 20.7375C39.396 20.5377 39.2559 20.3669 39.0761 20.2467C38.8962 20.1265 38.6848 20.0623 38.4685 20.0623H32.9998V15.6873C32.9997 15.471 32.9356 15.2596 32.8154 15.0797C32.6952 14.8999 32.5244 14.7598 32.3245 14.677C32.1247 14.5942 31.9048 14.5726 31.6927 14.6148C31.4806 14.6569 31.2857 14.7611 31.1327 14.914L26.4373 19.6095L21.7418 14.914C21.5888 14.7611 21.394 14.6569 21.1818 14.6148C20.9697 14.5726 20.7498 14.5942 20.55 14.677C20.3502 14.7598 20.1794 14.8999 20.0592 15.0797C19.939 15.2596 19.8748 15.471 19.8748 15.6873V20.0623H15.4998C15.2835 20.0623 15.0721 20.1265 14.8922 20.2467C14.7124 20.3669 14.5723 20.5377 14.4895 20.7375C14.4067 20.9373 14.3851 21.1572 14.4273 21.3693C14.4694 21.5815 14.5736 21.7763 14.7265 21.9293L18.0077 25.2105Z" fill="#C19444"/>
<path d="M24.5782 13.5H26.7657C26.7661 13.2884 26.8117 13.0793 26.8995 12.8868C26.9872 12.6942 27.1149 12.5225 27.2743 12.3833C27.9299 11.7056 28.2965 10.7996 28.2965 9.85672C28.2965 8.91379 27.9299 8.0078 27.2743 7.33016C27.1142 7.19074 26.9859 7.01863 26.898 6.82543C26.81 6.63223 26.7645 6.42242 26.7645 6.21016C26.7645 5.99789 26.81 5.78809 26.898 5.59489C26.9859 5.40169 27.1142 5.22958 27.2743 5.09016C27.9335 4.41438 28.3008 3.50658 28.2969 2.5625H26.1094C26.1091 2.77472 26.0635 2.98443 25.9756 3.17759C25.8877 3.37074 25.7596 3.54289 25.5997 3.6825C24.9444 4.36077 24.5781 5.26703 24.5781 6.21016C24.5781 7.15328 24.9444 8.05954 25.5997 8.73781C25.7596 8.87703 25.8877 9.04889 25.9755 9.2418C26.0633 9.43472 26.1087 9.64421 26.1087 9.85617C26.1087 10.0681 26.0633 10.2776 25.9755 10.4705C25.8877 10.6635 25.7596 10.8353 25.5997 10.9745C24.9404 11.6493 24.5734 12.5566 24.5782 13.5Z" fill="#C19444"/>
<path d="M31.1407 11.3125H33.3282C33.3286 11.1009 33.3742 10.8918 33.462 10.6993C33.5497 10.5067 33.6774 10.335 33.8368 10.1958C34.4924 9.51814 34.859 8.61214 34.859 7.66922C34.859 6.72629 34.4924 5.8203 33.8368 5.14266C33.6767 5.00324 33.5484 4.83113 33.4605 4.63793C33.3725 4.44473 33.327 4.23492 33.327 4.02266C33.327 3.81039 33.3725 3.60059 33.4605 3.40739C33.5484 3.21419 33.6767 3.04208 33.8368 2.90266C34.496 2.22688 34.8633 1.31908 34.8594 0.375H32.6719C32.6716 0.587218 32.626 0.796928 32.5381 0.990086C32.4502 1.18324 32.3221 1.35539 32.1622 1.495C31.5069 2.17327 31.1406 3.07953 31.1406 4.02266C31.1406 4.96578 31.5069 5.87204 32.1622 6.55031C32.3221 6.68953 32.4502 6.86139 32.538 7.0543C32.6258 7.24722 32.6712 7.45671 32.6712 7.66867C32.6712 7.88063 32.6258 8.09012 32.538 8.28304C32.4502 8.47596 32.3221 8.64782 32.1622 8.78703C31.5029 9.46179 31.1359 10.3691 31.1407 11.3125Z" fill="#C19444"/>
</svg>
