<svg width="50" height="50" viewBox="0 0 50 50" fill="none" xmlns="http://www.w3.org/2000/svg">
<g clip-path="url(#clip0_1_2857)">
<path d="M50 8.5061C50 4.95972 47.1147 2.07446 43.5684 2.07446C43.0584 2.07446 42.5529 2.13472 42.0601 2.25376C41.0732 1.29419 39.7506 0.752197 38.3634 0.752197C37.3248 0.752197 36.3096 1.05981 35.4493 1.62515C35.2993 1.54595 35.1381 1.48257 34.9667 1.43882C32.9099 0.915771 30.7219 1.29868 28.9639 2.4898C27.206 3.68198 26.04 5.57251 25.7649 7.67661L24.7517 15.4116L21.9498 7.99712C21.1263 5.81909 19.0085 4.35571 16.6797 4.35571H0.732422C0.327832 4.35571 0 4.68364 0 5.08813C0 5.49263 0.327832 5.82056 0.732422 5.82056H16.6797C18.4029 5.82056 19.9702 6.90337 20.5796 8.51499L25.5103 21.5628C25.618 21.8478 25.8907 22.0364 26.1954 22.0364H39.6515C40.9378 22.0364 42.1651 22.5879 43.0188 23.5498C43.8727 24.5116 44.2749 25.7959 44.1224 27.0735L42.9018 37.2918C42.7818 38.2897 41.9342 39.0422 40.9298 39.0422H36.7827C36.4076 34.1595 32.3147 30.3013 27.3375 30.3013C22.3603 30.3013 18.2674 34.1595 17.8923 39.0422H0.732422C0.327832 39.0422 0 39.3702 0 39.7747C0 40.1791 0.327832 40.5071 0.732422 40.5071H17.8921C18.2672 45.3898 22.3602 49.2479 27.3373 49.2479C32.3145 49.2479 36.4074 45.3897 36.7825 40.5071H40.9296C42.6748 40.5071 44.1479 39.2 44.3561 37.4661L45.5768 27.2472C45.7789 25.5542 45.2458 23.8521 44.1142 22.5773C42.9827 21.3026 41.3561 20.5715 39.6513 20.5715H38.4161C38.5003 20.3138 38.5568 20.0469 38.5839 19.776C39.2249 20.0147 39.9065 20.1379 40.6034 20.1379C41.9261 20.1379 43.2197 19.6801 44.2461 18.8487C44.5604 18.5941 44.6089 18.1329 44.3542 17.8186C44.0995 17.5042 43.6383 17.4559 43.324 17.7105C42.5466 18.3403 41.6058 18.6731 40.6034 18.6731C39.7228 18.6731 38.875 18.4098 38.1517 17.9117C37.8948 17.7347 37.554 17.7399 37.3026 17.9247C37.0513 18.1093 36.9444 18.433 37.0364 18.731C37.1036 18.9484 37.1376 19.1753 37.1376 19.4055C37.1376 19.8231 37.0268 20.2201 36.8176 20.5715H32.8706C32.6615 20.2201 32.5507 19.8231 32.5507 19.4055C32.5507 18.6271 32.9421 17.9079 33.5976 17.4814C33.8029 17.3478 33.9279 17.1204 33.9306 16.8753C33.9331 16.6303 33.8132 16.4002 33.6107 16.2623C32.6938 15.6372 32.1464 14.6024 32.1464 13.4944C32.1464 11.7198 33.5329 10.2513 35.3029 10.1514C35.5965 10.1348 35.8517 9.94429 35.9511 9.66753C36.0504 9.39077 35.9745 9.08149 35.7585 8.88198C34.9717 8.15552 34.5204 7.12642 34.5204 6.05874C34.5204 5.96001 34.5256 5.86147 34.5331 5.76333C35.4704 5.71606 36.3104 5.06646 36.5545 4.11021C36.676 3.63208 36.6296 3.14976 36.4526 2.72583C37.03 2.39507 37.6897 2.21694 38.3631 2.21694C39.4824 2.21694 40.5439 2.70493 41.2755 3.55571C41.4674 3.77895 41.7742 3.86538 42.0546 3.77563C42.5437 3.6187 43.0529 3.53921 43.5682 3.53921C46.3069 3.53921 48.535 5.76724 48.535 8.50601C48.535 10.5683 47.2929 12.385 45.3706 13.1341C45.0628 13.2541 44.8732 13.5655 44.9083 13.8941C44.9236 14.0385 44.9314 14.1901 44.9314 14.3449C44.9314 14.6494 44.8997 14.953 44.8371 15.2471C44.753 15.6428 45.0055 16.0318 45.4011 16.1159C45.4524 16.1268 45.5037 16.1321 45.5542 16.1321C45.8926 16.1321 46.1966 15.8961 46.2698 15.5519C46.3536 15.1577 46.3962 14.7516 46.3962 14.3449C46.3962 14.3243 46.3961 14.3038 46.3959 14.2832C48.6022 13.2089 50 10.9958 50 8.5061ZM27.3374 47.7831C22.9215 47.7831 19.3289 44.1905 19.3289 39.7746C19.3289 35.3586 22.9215 31.7661 27.3374 31.7661C31.7533 31.7661 35.3459 35.3586 35.3459 39.7746C35.3459 44.1905 31.7532 47.7831 27.3374 47.7831ZM30.6816 13.4944C30.6816 14.7717 31.1875 15.9811 32.0673 16.8734C31.4418 17.5574 31.0859 18.4543 31.0859 19.4055C31.0859 19.8033 31.1507 20.197 31.273 20.5715H28.5074L30.1217 8.24761C30.2342 7.38716 30.7108 6.61421 31.4291 6.1273C31.9207 5.79438 32.4946 5.61636 33.0774 5.60542C33.0646 5.7561 33.0557 5.90728 33.0557 6.05884C33.0557 7.08921 33.3597 8.09341 33.9131 8.94702C32.0245 9.60347 30.6816 11.4006 30.6816 13.4944ZM35.1351 3.74878C35.0352 4.14048 34.6352 4.37827 34.244 4.27866C32.9979 3.96177 31.6729 4.19341 30.6075 4.9145C29.5426 5.63657 28.836 6.78218 28.6692 8.05747L27.0301 20.5715H26.7015L25.8486 18.3146L27.2174 7.86655C27.4383 6.17729 28.3745 4.65933 29.7858 3.7022C31.1973 2.74585 32.954 2.43843 34.605 2.85825C34.9966 2.95835 35.2343 3.35806 35.1351 3.74878Z" fill="#C19444"/>
<path d="M19.8086 20.5715H9.67773C9.27314 20.5715 8.94531 20.8995 8.94531 21.304C8.94531 21.7084 9.27314 22.0364 9.67773 22.0364H19.8086C20.6693 22.0364 21.4754 21.6136 21.9647 20.9055C22.454 20.1976 22.5646 19.2944 22.2603 18.4894L18.7525 9.2064C18.4291 8.34946 17.596 7.77368 16.6796 7.77368H6.03906C4.59375 7.77368 3.41797 8.94956 3.41797 10.3948V19.4153C3.41797 20.8605 4.59375 22.0364 6.03906 22.0364H6.25977C6.66436 22.0364 6.99219 21.7084 6.99219 21.304C6.99219 20.8995 6.66436 20.5715 6.25977 20.5715H6.03906C5.40156 20.5715 4.88281 20.0528 4.88281 19.4153V10.3948C4.88281 9.75728 5.40156 9.23853 6.03906 9.23853H16.6797C16.9903 9.23853 17.2726 9.43354 17.3822 9.72397L20.89 19.0073C21.0263 19.3675 20.9786 19.756 20.7597 20.0728C20.5406 20.3897 20.1939 20.5715 19.8086 20.5715Z" fill="#C19444"/>
<path d="M27.3369 34.5608C24.462 34.5608 22.123 36.8998 22.123 39.7747C22.123 42.6496 24.4619 44.9885 27.3369 44.9885C28.0301 44.9885 28.7027 44.8545 29.3365 44.5903C29.7099 44.4346 29.8864 44.0058 29.7308 43.6324C29.575 43.259 29.1459 43.0827 28.7729 43.2382C28.3187 43.4276 27.8354 43.5236 27.3369 43.5236C25.2697 43.5236 23.5879 41.8417 23.5879 39.7746C23.5879 37.7074 25.2697 36.0255 27.3369 36.0255C29.4042 36.0255 31.086 37.7074 31.086 39.7746C31.086 40.2989 30.9805 40.8043 30.7722 41.2771C30.6091 41.6473 30.777 42.0795 31.1472 42.2426C31.5174 42.4059 31.9497 42.2378 32.1127 41.8677C32.4035 41.2077 32.5509 40.5035 32.5509 39.7746C32.5508 36.8997 30.2118 34.5608 27.3369 34.5608Z" fill="#C19444"/>
<path d="M39.444 32.409C41.0055 32.409 42.2759 31.1387 42.2759 29.5771V26.2645C42.2759 25.1047 41.3323 24.1611 40.1726 24.1611H37.7184C37.0499 24.1611 36.4365 24.4679 36.0355 25.0026C35.6347 25.5374 35.512 26.2121 35.6993 26.8537L36.7257 30.3706C37.0759 31.5707 38.1937 32.409 39.444 32.409ZM37.2075 25.8814C37.3293 25.719 37.5154 25.626 37.7184 25.626H40.1726C40.5246 25.626 40.811 25.9124 40.811 26.2645V29.5771C40.811 30.331 40.1978 30.9441 39.444 30.9441C38.8404 30.9441 38.3009 30.5395 38.1317 29.9601L37.1054 26.4433C37.0486 26.2485 37.0858 26.0437 37.2075 25.8814Z" fill="#C19444"/>
<path d="M0 36.3562C0 36.7607 0.327832 37.0886 0.732422 37.0886H15.3487C15.7533 37.0886 16.0812 36.7607 16.0812 36.3562C16.0812 35.9517 15.7533 35.6238 15.3487 35.6238H0.732422C0.327832 35.6238 0 35.9517 0 36.3562Z" fill="#C19444"/>
<path d="M4.15039 25.626H8.04053C8.44512 25.626 8.77295 25.298 8.77295 24.8936C8.77295 24.4891 8.44512 24.1611 8.04053 24.1611H4.15039C3.7458 24.1611 3.41797 24.4891 3.41797 24.8936C3.41797 25.298 3.7458 25.626 4.15039 25.626Z" fill="#C19444"/>
</g>
<defs>
<clipPath id="clip0_1_2857">
<rect width="50" height="50" fill="white"/>
</clipPath>
</defs>
</svg>
