<svg width="70" height="70" viewBox="0 0 70 70" fill="none" xmlns="http://www.w3.org/2000/svg">
<rect x="0.5" y="0.5" width="69" height="69" rx="20.5286" fill="white" stroke="#C19444"/>
<path d="M33.1018 21.4219C32.7999 21.4219 32.5103 21.5418 32.2968 21.7554C32.0832 21.9689 31.9633 22.2585 31.9633 22.5604C31.9633 22.8624 32.0832 23.152 32.2968 23.3655C32.5103 23.579 32.7999 23.699 33.1018 23.699H37.656C37.958 23.699 38.2476 23.579 38.4611 23.3655C38.6747 23.152 38.7946 22.8624 38.7946 22.5604C38.7946 22.2585 38.6747 21.9689 38.4611 21.7554C38.2476 21.5418 37.958 21.4219 37.656 21.4219H33.1018ZM30.8247 41.9159C30.8247 42.5198 30.5848 43.099 30.1578 43.526C29.7307 43.9531 29.1515 44.193 28.5476 44.193C27.9437 44.193 27.3645 43.9531 26.9375 43.526C26.5104 43.099 26.2705 42.5198 26.2705 41.9159C26.2705 41.3119 26.5104 40.7327 26.9375 40.3057C27.3645 39.8787 27.9437 39.6387 28.5476 39.6387C29.1515 39.6387 29.7307 39.8787 30.1578 40.3057C30.5848 40.7327 30.8247 41.3119 30.8247 41.9159ZM42.2103 44.193C42.8142 44.193 43.3934 43.9531 43.8204 43.526C44.2475 43.099 44.4874 42.5198 44.4874 41.9159C44.4874 41.3119 44.2475 40.7327 43.8204 40.3057C43.3934 39.8787 42.8142 39.6387 42.2103 39.6387C41.6063 39.6387 41.0271 39.8787 40.6001 40.3057C40.1731 40.7327 39.9332 41.3119 39.9332 41.9159C39.9332 42.5198 40.1731 43.099 40.6001 43.526C41.0271 43.9531 41.6063 44.193 42.2103 44.193Z" fill="#C19444"/>
<path d="M19.4391 24.8371C19.4391 22.7233 20.2788 20.6962 21.7734 19.2015C23.2681 17.7069 25.2952 16.8672 27.409 16.8672H43.3487C45.4625 16.8672 47.4897 17.7069 48.9843 19.2015C50.4789 20.6962 51.3186 22.7233 51.3186 24.8371V30.5298H53.5957C53.8977 30.5298 54.1873 30.6498 54.4008 30.8633C54.6143 31.0768 54.7343 31.3664 54.7343 31.6684C54.7343 31.9704 54.6143 32.26 54.4008 32.4735C54.1873 32.687 53.8977 32.8069 53.5957 32.8069H51.3186V49.8853C51.3186 50.7911 50.9588 51.6599 50.3182 52.3005C49.6776 52.9411 48.8088 53.3009 47.903 53.3009H45.6259C44.72 53.3009 43.8512 52.9411 43.2106 52.3005C42.57 51.6599 42.2102 50.7911 42.2102 49.8853V48.7467H28.5475V49.8853C28.5475 50.7911 28.1877 51.6599 27.5471 52.3005C26.9066 52.9411 26.0378 53.3009 25.1319 53.3009H22.8548C21.9489 53.3009 21.0801 52.9411 20.4395 52.3005C19.799 51.6599 19.4391 50.7911 19.4391 49.8853V32.8069H17.162C16.86 32.8069 16.5704 32.687 16.3569 32.4735C16.1434 32.26 16.0234 31.9704 16.0234 31.6684C16.0234 31.3664 16.1434 31.0768 16.3569 30.8633C16.5704 30.6498 16.86 30.5298 17.162 30.5298H19.4391V24.8371ZM49.0415 24.8371C49.0415 23.3273 48.4417 21.8793 47.3741 20.8117C46.3065 19.7441 44.8586 19.1443 43.3487 19.1443H27.409C25.8992 19.1443 24.4512 19.7441 23.3836 20.8117C22.316 21.8793 21.7162 23.3273 21.7162 24.8371V35.0841H49.0415V24.8371Z" fill="#C19444"/>
<path d="M44.4873 48.7422V49.8807C44.4873 50.1827 44.6073 50.4723 44.8208 50.6858C45.0343 50.8993 45.3239 51.0193 45.6259 51.0193H47.903C48.2049 51.0193 48.4945 50.8993 48.708 50.6858C48.9216 50.4723 49.0415 50.1827 49.0415 49.8807V48.7422H44.4873Z" fill="#C19444"/>
<path d="M21.7158 48.7449V49.8835C21.7158 50.1854 21.8358 50.475 22.0493 50.6886C22.2628 50.9021 22.5524 51.022 22.8544 51.022H25.1315C25.4334 51.022 25.723 50.9021 25.9366 50.6886C26.1501 50.475 26.27 50.1854 26.27 49.8835V48.7449H21.7158ZM21.7158 46.4678H49.0411V37.3594H21.7158V46.4678Z" fill="#C19444"/>
</svg>
