<svg width="22" height="23" viewBox="0 0 22 23" fill="none" xmlns="http://www.w3.org/2000/svg">
<path d="M2.00205 22.3006L10.9997 12.5779L19.9973 22.3006L20.034 22.3403L20.0707 22.3006L21.2021 21.0781L21.2335 21.0441L21.2021 21.0102L12.1992 11.2818L21.2021 1.55338L21.2335 1.51942L21.2021 1.48546L20.0707 0.262914L20.034 0.22326L19.9973 0.262915L10.9997 9.98561L2.00205 0.262915L1.96536 0.22326L1.92866 0.262915L0.797287 1.48546L0.765859 1.51942L0.797287 1.55338L9.80017 11.2818L0.797287 21.0102L0.765859 21.0441L0.797287 21.0781L1.92866 22.3006L1.96536 22.3403L2.00205 22.3006Z" fill="#929292" stroke="white" stroke-width="0.1"/>
</svg>
