<svg width="20" height="20" viewBox="0 0 20 20" fill="none" xmlns="http://www.w3.org/2000/svg">
<g clip-path="url(#clip0_1761_8224)">
<path d="M3.05191 19.7407C2.99891 19.7407 2.78791 19.7837 2.75591 19.7947C2.73491 19.8037 2.65491 19.8897 2.58891 19.9587H18.6639C18.6359 19.8837 18.6139 19.8017 18.6009 19.7407C18.5799 19.6387 18.5059 19.5077 18.4019 19.5077C18.2959 19.5077 18.3179 19.4637 18.1989 19.3647C18.0829 19.2657 17.8399 18.9237 17.7219 18.7817C17.6069 18.6367 17.5329 18.6917 17.4059 18.6367C17.2789 18.5827 17.2049 18.6677 17.1609 18.6917C17.1169 18.7157 16.9409 18.8807 16.8859 18.8927C16.8329 18.9027 16.7169 18.9927 16.6979 19.0357C16.6769 19.0807 16.5179 19.1577 16.4439 19.1467C16.3699 19.1337 16.0839 19.2097 16.0839 19.2097C16.0839 19.2097 15.7619 19.2407 15.5299 19.2617C15.5769 19.1997 15.7289 18.9917 15.7409 18.8867C15.7569 18.7577 15.7989 18.5747 15.7989 18.5747C15.7989 18.5747 15.9539 17.9827 15.9819 17.8427C16.0099 17.7007 16.0809 17.4347 16.0809 17.4347C16.0809 17.4347 16.1799 17.3917 16.2089 17.2357C16.2359 17.0817 16.1659 16.8817 16.1659 16.8817C16.1659 16.8817 16.3339 16.4027 16.4199 16.2887C16.5059 16.1757 16.6599 16.0097 16.7159 15.8257C16.7719 15.6387 16.8289 15.4847 16.7439 15.3577C16.6599 15.2307 16.6309 15.1057 16.6309 15.1057C16.6309 15.1057 16.7599 15.1727 16.8169 15.1447C16.8739 15.1177 17.1139 14.9197 17.1139 14.9197L17.4089 15.0757L17.4519 14.9347C17.4519 14.9347 17.9179 14.6087 17.5939 14.1157C17.2669 13.6217 16.8889 13.7897 16.7339 13.9017C16.5779 14.0167 16.3799 14.0447 16.3959 14.0867C16.4079 14.1317 16.4369 14.1857 16.4369 14.1857C16.4369 14.1857 16.3529 14.2427 16.2929 14.1717C16.2389 14.1017 16.0959 14.0447 16.0409 13.8457C15.9849 13.6507 15.8729 13.3537 15.7019 13.1997C15.5339 13.0427 15.0819 12.7477 14.8559 12.5907C14.6289 12.4357 14.5439 12.3817 14.3889 12.3517C14.2329 12.3257 14.1079 12.2527 14.0079 12.1987C13.9079 12.1387 13.7539 12.0427 13.7539 12.0427L13.7679 11.7887C13.7679 11.7887 14.0489 11.6897 14.0649 11.6337C14.0799 11.5777 13.9239 11.5487 13.9239 11.5487C13.9239 11.5487 13.8239 11.1527 13.4439 11.0697C13.0629 10.9837 12.7949 11.1537 12.7949 11.1537C12.7949 11.1537 12.8229 10.7157 12.6389 10.3927C12.4539 10.0657 12.3009 9.74274 12.3009 9.74274C12.3009 9.74274 12.4139 9.71574 12.3999 9.64474C12.3859 9.57174 12.2869 9.47474 12.2159 9.39174C12.1459 9.30674 12.1999 9.24974 12.0899 9.23174C11.9779 9.22174 11.9219 9.19374 11.9219 9.19374L11.8309 9.04974L7.92891 0.291741C7.92891 0.291741 8.01391 0.0687407 7.82991 0.0127407C7.64691 -0.0452593 7.63291 0.108741 7.66091 0.193741C7.67191 0.231741 7.70691 0.260741 7.74391 0.282741C7.73691 0.398741 7.72991 0.632741 7.76391 0.977741C7.46691 1.26174 6.27691 2.39274 5.88291 2.66174C5.43091 2.97274 4.72491 3.28574 4.47091 3.65174C4.21591 4.01774 4.01891 4.38674 3.53891 4.49874C3.05991 4.61274 2.75091 4.61274 2.15791 4.86474C1.56291 5.12274 1.31091 5.51374 1.31091 5.51374C1.31091 5.51374 1.22591 6.22174 1.45091 6.55874C1.67891 6.89674 1.76191 7.57374 1.76191 7.57374C1.76191 7.57374 2.60791 6.62874 3.42791 6.61574C5.60291 6.57774 5.28591 5.94174 6.61391 5.34674C7.79591 4.81874 8.88191 5.04274 9.06491 5.01174C10.0199 7.00374 10.7409 7.88374 11.2529 8.74474C11.1419 8.80774 11.0299 8.88774 10.9829 8.97574C10.9499 8.97574 10.9379 9.02474 10.9279 9.08174C10.8229 9.29174 10.7049 9.55274 10.6479 9.72474C10.6219 9.80374 10.4799 10.0467 10.3039 10.3237C10.1569 10.4887 10.0009 10.6677 9.95291 10.7407C9.89691 10.8237 9.83591 10.9637 9.77591 11.0737C9.67491 11.2007 9.58091 11.3027 9.51491 11.3477L9.41591 11.1197C9.41591 11.1197 9.53091 10.8677 9.48891 10.7537C9.44591 10.6407 9.31691 10.7107 9.31691 10.7107C9.31691 10.7107 8.99391 10.4157 8.63991 10.5857C8.28891 10.7537 8.21691 11.0497 8.31691 11.3317C8.41591 11.6137 8.61191 11.7277 8.61191 11.7277C8.61191 11.7277 8.62591 11.9507 8.50191 11.9637L8.49891 11.9647C8.41991 11.9757 8.36391 11.9837 8.31191 11.9987C8.20291 11.9937 8.10891 11.9737 8.02391 11.9587C7.93291 11.9897 7.83391 12.0257 7.72691 12.0627C7.66191 12.1897 7.61591 12.5417 7.57191 12.9037C7.50491 13.2157 7.43891 13.5137 7.43891 13.5137C7.43891 13.5137 7.21391 13.7267 7.11491 13.7427C7.01491 13.7567 6.84691 13.8677 6.73391 14.0107C6.62091 14.1497 6.23991 14.4347 6.22791 14.5467C6.21191 14.6597 6.31091 14.7427 6.25391 14.7997C6.19791 14.8567 6.15391 14.9127 6.16991 14.9997C6.18391 15.0807 6.36691 15.1667 6.25391 15.2687C6.14091 15.3667 5.84491 15.8727 5.77391 16.0427C5.70391 16.2107 5.39291 16.6377 5.23691 16.6917C5.08391 16.7477 4.73091 16.9747 4.62991 17.0727C4.53191 17.1737 4.10891 17.6917 3.91191 17.8047C3.71491 17.9157 3.41691 18.2697 3.41691 18.2697C3.41691 18.2697 3.04991 18.4687 3.00791 18.5387C2.96491 18.6097 2.96491 18.6097 2.97891 18.6967C2.99291 18.7807 3.28991 19.0897 3.34691 19.2477C3.37791 19.3337 3.40891 19.4267 3.45791 19.4987C3.39791 19.5147 3.34991 19.5317 3.33491 19.5387C3.29491 19.5627 3.10491 19.7407 3.05191 19.7407ZM15.4409 18.3897C15.4409 18.3897 15.3219 18.4217 15.3219 18.4537C15.3219 18.4867 15.2259 18.4357 15.2259 18.4357L15.0599 17.9057C15.0599 17.9057 15.4179 17.7107 15.4529 17.8417L15.4409 18.3897ZM15.4409 15.9577C15.5619 15.9457 15.6709 15.9787 15.6709 15.9787L15.6369 16.4167C15.6369 16.4167 15.3759 16.2087 15.2649 16.1227C15.1579 16.0327 14.9819 15.9137 14.9819 15.9137C14.9819 15.9137 15.3209 15.9677 15.4409 15.9577ZM14.5389 18.1077C14.7389 18.0357 14.8279 17.9847 14.8279 17.9847L15.2869 19.2697C15.1669 19.2397 14.7649 19.0257 14.6959 18.9337C14.6209 18.8347 14.5069 18.8237 14.4209 18.7817C14.3749 18.7567 14.2619 18.7457 14.1699 18.7427C14.1589 18.6877 14.1309 18.6297 14.0769 18.5877C13.9339 18.4757 13.8639 18.3187 13.9479 18.2907C14.0319 18.2647 14.3419 18.1807 14.5389 18.1077ZM13.2979 16.9667C13.2979 16.9667 13.3829 16.8377 13.3979 16.7397C13.4109 16.6407 13.3829 16.5527 13.3829 16.5527C13.3829 16.5527 13.9759 16.7817 14.1999 16.8517C14.4279 16.9197 14.3449 17.0157 14.3449 17.0157C14.3449 17.0157 14.0189 17.4157 13.8629 17.4727C13.7089 17.5307 13.4969 17.6287 13.4969 17.6287C13.4969 17.6287 13.3259 17.6567 13.2149 17.7117C13.1039 17.7697 12.9589 17.8677 12.9589 17.8677C12.9589 17.8677 13.0549 18.0307 13.1639 18.2097C13.1499 18.2137 13.1369 18.2157 13.1289 18.2167C13.0329 18.2507 12.9899 18.3947 12.9899 18.3947C12.9899 18.3947 12.6749 18.5137 12.6329 18.5477C12.5909 18.5827 12.4319 18.6817 12.4209 18.7267C12.4109 18.7697 12.1129 18.8357 12.1129 18.8357C12.1129 18.8357 11.7989 18.8407 11.5939 18.8537C11.6659 18.7157 11.7689 18.5477 11.9019 18.4187C12.1829 18.1357 13.2979 16.9667 13.2979 16.9667ZM8.85191 3.80774C7.96791 1.75674 8.03191 1.08474 8.03191 1.08474L11.3859 8.67374C11.3819 8.67474 11.3789 8.67874 11.3749 8.67974C9.19091 5.30874 9.37391 5.01674 8.85191 3.80774ZM10.7759 16.2957C10.7759 16.2957 11.8639 16.8527 11.8749 16.9177C11.8869 16.9827 11.5389 17.2777 11.4499 17.2877C11.3639 17.2997 11.1919 17.6337 11.0939 17.6897C10.9959 17.7457 10.7109 17.3307 10.7109 17.3307C10.7109 17.3307 10.7989 17.2237 10.7439 17.0707C10.6899 16.9167 10.6689 16.4177 10.6689 16.4177C10.6689 16.4177 10.6139 16.1097 10.7759 16.2957ZM3.84291 18.6297L4.23691 18.8137C4.23691 18.8137 5.30991 17.6297 5.70591 17.3607C6.10091 17.0927 7.28591 16.0077 7.28591 16.0077L7.58291 16.0637C7.58291 16.0637 7.14491 17.0207 6.97491 17.1787C6.80791 17.3297 6.46891 17.5147 6.28491 17.6847C6.10191 17.8547 5.80491 18.2767 5.69291 18.4187C5.57991 18.5597 5.36791 18.6847 5.36791 18.6847L5.23991 18.8007L4.74791 19.0657C4.74791 19.0657 4.87091 19.2537 4.99491 19.4257C4.74991 19.4447 4.50491 19.5027 4.32391 19.5527C4.21891 19.5247 4.06891 19.4907 3.95591 19.4697C3.89891 19.4487 3.77891 19.3757 3.74691 19.1537C3.70091 18.8557 3.84291 18.6297 3.84291 18.6297Z" fill="#E29249"/>
</g>
<defs>
<clipPath id="clip0_1761_8224">
<rect width="19.959" height="19.959" fill="white"/>
</clipPath>
</defs>
</svg>
