<svg width="16" height="15" viewBox="0 0 16 15" fill="none" xmlns="http://www.w3.org/2000/svg">
<path d="M4.03685 2.59902C4.5395 2.59902 4.94699 2.19137 4.94699 1.68855C4.94699 1.35345 4.54281 0.600884 4.27312 0.136078C4.16787 -0.0453592 3.90586 -0.0453592 3.80058 0.136078C3.53092 0.600884 3.12671 1.35345 3.12671 1.68855C3.12671 2.19137 3.5342 2.59902 4.03685 2.59902Z" fill="#19AD54"/>
<path d="M7.64574 2.59902C8.14838 2.59902 8.55588 2.19137 8.55588 1.68855C8.55588 1.35345 8.1517 0.600884 7.88201 0.136078C7.77676 -0.0453592 7.51474 -0.0453592 7.40947 0.136078C7.1398 0.600884 6.7356 1.35345 6.7356 1.68855C6.7356 2.19137 7.14306 2.59902 7.64574 2.59902Z" fill="#19AD54"/>
<path d="M11.2544 2.59902C11.757 2.59902 12.1645 2.19137 12.1645 1.68855C12.1645 1.35345 11.7603 0.600884 11.4906 0.136078C11.3854 -0.0453592 11.1234 -0.0453592 11.0181 0.136078C10.7484 0.600884 10.3442 1.35345 10.3442 1.68855C10.3442 2.19137 10.7517 2.59902 11.2544 2.59902Z" fill="#19AD54"/>
<path d="M3.53592 3.34766C3.31329 3.34766 3.13281 3.5282 3.13281 3.75091V7.00405H4.94121V3.75094C4.94121 3.52823 4.76076 3.34769 4.5381 3.34769H3.53592V3.34766Z" fill="#19AD54"/>
<path d="M7.14456 3.34766C6.92194 3.34766 6.74146 3.5282 6.74146 3.75091V7.00405H8.54985V3.75094C8.54985 3.52823 8.36937 3.34769 8.14675 3.34769H7.14456V3.34766Z" fill="#19AD54"/>
<path d="M10.7534 3.34766C10.5308 3.34766 10.3503 3.5282 10.3503 3.75091V7.00405H12.1587V3.75094C12.1587 3.52823 11.9783 3.34769 11.7556 3.34769H10.7534V3.34766Z" fill="#19AD54"/>
<path d="M1.97863 10.4907C2.05156 10.4907 2.12619 10.4805 2.20038 10.4585L3.33129 10.1237C3.70094 10.0143 4.08643 9.95957 4.47188 9.95957C4.85733 9.95957 5.24281 10.0143 5.61247 10.1237L6.50511 10.388C6.87476 10.4974 7.26024 10.5521 7.64569 10.5521C8.03115 10.5521 8.41663 10.4974 8.78628 10.388L9.67892 10.1237C10.0486 10.0143 10.4341 9.95957 10.8195 9.95957C11.205 9.95957 11.5904 10.0143 11.9601 10.1237L13.091 10.4585C13.1652 10.4804 13.2399 10.4907 13.3128 10.4907C13.6747 10.4907 13.9933 10.2374 13.9933 9.901V8.74602C13.9933 8.36313 13.6343 8.05273 13.1915 8.05273H2.09994C1.65709 8.05273 1.2981 8.36313 1.2981 8.74602V9.901C1.2981 10.2374 1.61677 10.4907 1.97863 10.4907Z" fill="#19AD54"/>
<path d="M14.8435 14.1032H13.6206V11.3559C13.5199 11.3747 13.4169 11.3847 13.3128 11.3847C13.1518 11.3847 12.9916 11.3614 12.8367 11.3156L11.7058 10.9808C11.4205 10.8963 11.1223 10.8535 10.8195 10.8535C10.5168 10.8535 10.2186 10.8963 9.93329 10.9808L9.04066 11.2451C8.59009 11.3784 8.12081 11.4461 7.64576 11.4461C7.17071 11.4461 6.70139 11.3784 6.25083 11.2451L5.35819 10.9808C5.07288 10.8963 4.7747 10.8535 4.47194 10.8535C4.16919 10.8535 3.87101 10.8963 3.5857 10.9808L2.45479 11.3156C2.2999 11.3614 2.13973 11.3847 1.97869 11.3847C1.87455 11.3847 1.77157 11.3747 1.67092 11.3559V14.1032H0.447992C0.200581 14.1032 0 14.3038 0 14.5512C0 14.7987 0.200581 14.9992 0.447992 14.9992H14.8435C15.0909 14.9992 15.2915 14.7987 15.2915 14.5512C15.2915 14.3038 15.0909 14.1032 14.8435 14.1032Z" fill="#19AD54"/>
</svg>
