<svg width="15" height="19" viewBox="0 0 15 19" fill="none" xmlns="http://www.w3.org/2000/svg">
<path d="M10.8035 1.92727V11.0344C12.2023 10.7853 13.6011 10.8365 15 11.6925V2.5854C13.6011 1.72933 12.2023 1.67819 10.8035 1.92727Z" fill="#E29249"/>
<path d="M1.07143 2.14286C1.66316 2.14286 2.14286 1.66316 2.14286 1.07143C2.14286 0.479695 1.66316 0 1.07143 0C0.479695 0 0 0.479695 0 1.07143C0 1.66316 0.479695 2.14286 1.07143 2.14286Z" fill="#E29249"/>
<path d="M6.33936 12.24C7.64883 11.9427 8.95828 11.4415 10.2677 11.1443V2.03711C8.95828 2.33443 7.64883 2.83559 6.33936 3.13286V12.24Z" fill="#E29249"/>
<path d="M1.60707 2.58398C1.26087 2.74508 0.88185 2.74508 0.535645 2.58398V18.584H1.60707V2.58398Z" fill="#E29249"/>
<path d="M2.14282 2.875V11.9821C3.3631 12.5568 4.58335 12.5683 5.80363 12.3511V3.24395C4.58335 3.46113 3.3631 3.44961 2.14282 2.875Z" fill="#E29249"/>
</svg>
