<svg width="39" height="16" viewBox="0 0 39 16" fill="none" xmlns="http://www.w3.org/2000/svg">
<path d="M5.14847 15.3963L10.3807 14.4681C11.0644 14.3462 11.6833 14.0235 12.1716 13.5353C12.9479 12.759 13.2959 11.6496 13.1027 10.5686L12.793 8.82889C14.7951 8.43424 17.2545 8.21926 19.8038 8.21903C22.3529 8.21903 24.812 8.43424 26.8139 8.82913L26.5047 10.5684C26.3461 11.4541 26.5421 12.3474 27.0563 13.0831C27.5703 13.8181 28.3405 14.3098 29.2269 14.4681L34.4587 15.3967C35.5521 15.5903 36.6625 15.2489 37.4289 14.4825C37.6944 14.2169 37.908 13.9096 38.0645 13.5702C38.2421 13.1845 38.3767 12.7945 38.4724 12.3757L38.5982 11.6509C38.6219 11.462 38.6303 11.2725 38.6303 11.0831C38.6305 10.0456 38.3422 9.02089 37.7736 8.03679C35.3367 3.8267 28.1147 0.997449 19.8036 0.99745C12.8241 0.997449 6.46384 3.02206 3.20465 6.28032L3.20442 6.28055C2.64632 6.83865 2.18527 7.42971 1.83379 8.03748C1.26501 9.02135 0.976677 10.0461 0.976677 11.0843C0.976677 11.2728 0.985499 11.4617 1.01382 11.6832L1.14174 12.4105C1.22926 12.791 1.36414 13.1808 1.54243 13.5699C2.15973 14.912 3.64272 15.6632 5.14847 15.3963Z" fill="white"/>
</svg>
