<svg width="15" height="15" viewBox="0 0 15 15" fill="none" xmlns="http://www.w3.org/2000/svg">
<path fill-rule="evenodd" clip-rule="evenodd" d="M8.7886 5.69139C8.78767 5.79469 8.81751 5.89592 8.87432 5.9822C8.93113 6.06847 9.01234 6.13588 9.1076 6.17584C9.20285 6.2158 9.30785 6.22649 9.40921 6.20657C9.51057 6.18664 9.6037 6.137 9.67675 6.06395C9.74979 5.99091 9.79944 5.89778 9.81936 5.79642C9.83929 5.69506 9.82859 5.59006 9.78863 5.4948C9.74867 5.39955 9.68126 5.31834 9.59499 5.26153C9.50871 5.20472 9.40748 5.17488 9.30419 5.1758C9.16744 5.1758 9.0363 5.23012 8.93961 5.32682C8.84292 5.42351 8.7886 5.55465 8.7886 5.69139Z" fill="#5775B1"/>
<path fill-rule="evenodd" clip-rule="evenodd" d="M12.6555 8.97305C12.5267 8.98532 12.407 9.04519 12.3199 9.14096C12.2328 9.23674 12.1846 9.36154 12.1846 9.49098C12.1846 9.62043 12.2328 9.74523 12.3199 9.841C12.407 9.93677 12.5267 9.99665 12.6555 10.0089C12.7277 10.0158 12.8005 10.0075 12.8692 9.98461C12.938 9.9617 13.0012 9.92468 13.0549 9.87592C13.1085 9.82716 13.1513 9.76773 13.1807 9.70144C13.21 9.63515 13.2251 9.56347 13.2251 9.49098C13.2251 9.4185 13.21 9.34682 13.1807 9.28053C13.1513 9.21424 13.1085 9.15481 13.0549 9.10604C13.0012 9.05728 12.938 9.02026 12.8692 8.99736C12.8005 8.97446 12.7277 8.96617 12.6555 8.97305Z" fill="#5775B1"/>
<path fill-rule="evenodd" clip-rule="evenodd" d="M8.2308 4.16419C8.30825 4.16407 8.38476 4.14726 8.45513 4.1149C8.5255 4.08255 8.58807 4.03541 8.63858 3.9767C9.19533 3.32242 9.50251 2.49219 9.50572 1.6331V0.512858C9.50335 0.378902 9.4494 0.251022 9.3551 0.155851C9.2608 0.0606794 9.13343 0.00555323 8.9995 0.00195313C8.86232 0.00194756 8.73069 0.0561186 8.63325 0.152678C8.53582 0.249238 8.48045 0.380372 8.47922 0.517545V1.63779C8.47285 2.2565 8.24693 2.85285 7.84176 3.32049C7.77975 3.39565 7.74031 3.48685 7.728 3.58351C7.7157 3.68018 7.73104 3.77835 7.77225 3.86665C7.81346 3.95495 7.87884 4.02976 7.96083 4.08242C8.04281 4.13508 8.13805 4.16343 8.23548 4.16419H8.2308Z" fill="#5775B1"/>
<path fill-rule="evenodd" clip-rule="evenodd" d="M11.3898 3.93352C11.4424 3.95261 11.4979 3.96213 11.5539 3.96165C11.6629 3.96132 11.769 3.92675 11.8573 3.86283C11.9456 3.79891 12.0116 3.70887 12.046 3.60542C12.1342 3.34134 12.2826 3.10139 12.4794 2.90452C12.6763 2.70766 12.9162 2.55928 13.1803 2.47112C13.5971 2.33181 13.9758 2.09754 14.2865 1.78681C14.5973 1.47608 14.8315 1.09738 14.9708 0.680607C15.0143 0.550701 15.0045 0.408831 14.9434 0.286208C14.8823 0.163585 14.775 0.0702525 14.6451 0.0267432C14.5152 -0.0167661 14.3733 -0.00688824 14.2507 0.0542037C14.128 0.115296 14.0347 0.222597 13.9912 0.352504C13.9022 0.617425 13.7531 0.85813 13.5555 1.05574C13.3578 1.25336 13.1171 1.40251 12.8522 1.49149C12.4358 1.63145 12.0574 1.86593 11.7468 2.17658C11.4361 2.48722 11.2017 2.86558 11.0617 3.282C11.0404 3.34632 11.0321 3.41421 11.037 3.48177C11.042 3.54933 11.0603 3.61525 11.0907 3.67576C11.1212 3.73626 11.1633 3.79017 11.2146 3.8344C11.2659 3.87863 11.3255 3.91231 11.3898 3.93352Z" fill="#5775B1"/>
<path fill-rule="evenodd" clip-rule="evenodd" d="M14.8257 7.37393C14.4959 7.08362 14.1035 6.87337 13.6791 6.75955C13.2547 6.64573 12.8098 6.63141 12.379 6.71772L11.2447 6.95208C11.1098 6.97943 10.9913 7.05924 10.9152 7.17395C10.8392 7.28866 10.8119 7.42888 10.8392 7.56376C10.8666 7.69864 10.9464 7.81713 11.0611 7.89316C11.1758 7.9692 11.316 7.99655 11.4509 7.9692L12.5852 7.73484C12.8585 7.68056 13.1406 7.68995 13.4096 7.7623C13.6787 7.83464 13.9275 7.96799 14.1367 8.152C14.2318 8.23765 14.3555 8.28448 14.4835 8.28324C14.5561 8.28247 14.6277 8.26666 14.6939 8.23681C14.76 8.20696 14.8193 8.16372 14.8679 8.10982C14.9135 8.05878 14.9487 7.99924 14.9713 7.93459C14.9939 7.86995 15.0035 7.80148 14.9996 7.73311C14.9956 7.66474 14.9783 7.59782 14.9484 7.53618C14.9186 7.47455 14.8769 7.41941 14.8257 7.37393Z" fill="#5775B1"/>
<path fill-rule="evenodd" clip-rule="evenodd" d="M14.0617 4.36012C14.0333 4.3493 14.0076 4.33235 13.9866 4.31047C13.9655 4.28859 13.9495 4.26233 13.9398 4.23357C13.9117 4.16326 13.8742 4.06014 13.8367 3.95234C13.8209 3.91277 13.7939 3.87875 13.7588 3.85456C13.7238 3.83037 13.6824 3.8171 13.6398 3.81641C13.5977 3.81676 13.5568 3.82996 13.5224 3.85426C13.4881 3.87856 13.462 3.91278 13.4476 3.95234L13.3398 4.23357C13.3301 4.26233 13.3141 4.28859 13.293 4.31047C13.272 4.33235 13.2463 4.3493 13.218 4.36012L12.9367 4.46324C12.8968 4.47699 12.8622 4.50294 12.8378 4.53742C12.8134 4.5719 12.8005 4.61318 12.8008 4.65541C12.8002 4.69829 12.8129 4.74029 12.8373 4.77557C12.8617 4.81085 12.8964 4.83766 12.9367 4.85228L13.218 4.9554C13.2459 4.96572 13.2712 4.98195 13.2922 5.00299C13.3133 5.02402 13.3295 5.04936 13.3398 5.07726L13.4476 5.36318C13.4622 5.40224 13.4885 5.43584 13.5229 5.45934C13.5573 5.48284 13.5981 5.4951 13.6398 5.49442C13.682 5.49474 13.7233 5.4824 13.7584 5.459C13.7935 5.43561 13.8207 5.40223 13.8367 5.36318C13.8742 5.25069 13.9117 5.14757 13.9398 5.07726C13.9501 5.04936 13.9664 5.02402 13.9874 5.00299C14.0084 4.98195 14.0338 4.96572 14.0617 4.9554L14.3476 4.85228C14.3866 4.83635 14.42 4.80907 14.4434 4.77398C14.4668 4.73889 14.4791 4.69759 14.4788 4.65541C14.4795 4.61374 14.4672 4.57289 14.4437 4.53847C14.4202 4.50406 14.3866 4.47777 14.3476 4.46324L14.0617 4.36012Z" fill="#5775B1"/>
<path fill-rule="evenodd" clip-rule="evenodd" d="M5.49335 2.26439L5.77927 2.36751C5.80673 2.37858 5.83168 2.39509 5.85262 2.41603C5.87355 2.43697 5.89006 2.46191 5.90114 2.48937C5.92457 2.55968 5.96207 2.6628 6.00426 2.77529C6.01998 2.81485 6.04707 2.84887 6.08211 2.87306C6.11714 2.89725 6.15855 2.91053 6.20112 2.91122C6.24319 2.91087 6.28415 2.89766 6.3185 2.87337C6.35285 2.84907 6.37895 2.81485 6.39329 2.77529C6.43548 2.6628 6.47297 2.55968 6.49641 2.48937C6.50749 2.46191 6.52399 2.43697 6.54493 2.41603C6.56587 2.39509 6.59082 2.37858 6.61828 2.36751L6.9042 2.26439C6.94201 2.24724 6.97406 2.21954 6.99651 2.18462C7.01896 2.1497 7.03085 2.10904 7.03075 2.06752C7.03114 2.02654 7.01931 1.98637 6.99677 1.95215C6.97423 1.91792 6.942 1.89118 6.9042 1.87535L6.61828 1.77223C6.59082 1.76115 6.56587 1.74465 6.54493 1.72371C6.52399 1.70277 6.50749 1.67782 6.49641 1.65036C6.49641 1.58006 6.43548 1.47694 6.39329 1.36444C6.37895 1.32489 6.35285 1.29067 6.3185 1.26637C6.28415 1.24207 6.24319 1.22886 6.20112 1.22852C6.15855 1.22921 6.11714 1.24248 6.08211 1.26667C6.04707 1.29086 6.01998 1.32488 6.00426 1.36444C5.96207 1.47694 5.92457 1.58006 5.90114 1.65036C5.89006 1.67782 5.87355 1.70277 5.85262 1.72371C5.83168 1.74465 5.80673 1.76115 5.77927 1.77223L5.49335 1.87535C5.4538 1.88969 5.41957 1.91579 5.39528 1.95014C5.37098 1.98449 5.35777 2.02545 5.35742 2.06752C5.35811 2.11009 5.37139 2.1515 5.39558 2.18654C5.41977 2.22157 5.45379 2.24866 5.49335 2.26439Z" fill="#5775B1"/>
<path fill-rule="evenodd" clip-rule="evenodd" d="M0 15.0005L3.82007 13.8522L1.14368 11.1758L0 15.0005Z" fill="#5775B1"/>
<path fill-rule="evenodd" clip-rule="evenodd" d="M1.48584 10.0507L4.94968 13.5098L6.63707 13.0083L1.99206 8.36328C1.81863 8.907 1.64989 9.48352 1.48584 10.0507Z" fill="#5775B1"/>
<path fill-rule="evenodd" clip-rule="evenodd" d="M4.63086 4.87465C4.50447 4.74773 4.34745 4.65559 4.17501 4.60715C4.00257 4.5587 3.82054 4.55558 3.64655 4.5981C3.47313 4.64342 3.31413 4.73219 3.18455 4.85603C3.05497 4.97987 2.9591 5.13469 2.90597 5.30587C2.73723 5.85896 2.54037 6.52923 2.34351 7.24168L7.76191 12.6554L9.69772 12.0742C9.86821 12.0236 10.0226 11.9297 10.1459 11.8015C10.2691 11.6733 10.357 11.5153 10.4008 11.343C10.4449 11.1691 10.4435 10.9867 10.3967 10.8135C10.3499 10.6403 10.2593 10.482 10.1336 10.354L4.63086 4.87465Z" fill="#5775B1"/>
</svg>
