<svg width="25" height="25" viewBox="0 0 25 25" fill="none" xmlns="http://www.w3.org/2000/svg">
<g clip-path="url(#clip0_1_518)">
<path d="M7.11391 23.7574C7.11391 24.0686 7.36391 24.3186 7.67504 24.3186H11.5261V23.1963H7.67504C7.36391 23.1963 7.11391 23.4489 7.11391 23.7574Z" fill="#C19444"/>
<path d="M23.829 23.1963H21.7786C21.611 23.4064 21.3743 23.558 21.1004 23.6192L17.9223 24.3186H23.829C24.1375 24.3186 24.3902 24.0687 24.3902 23.7575C24.3903 23.4493 24.1376 23.1963 23.829 23.1963Z" fill="#C19444"/>
<path d="M6.55848 3.8667H5.05077C4.75707 3.8667 4.51898 4.10479 4.51898 4.39849V7.22256C4.51898 7.51626 4.75707 7.75435 5.05077 7.75435H6.55848C6.85218 7.75435 7.09027 7.51621 7.09027 7.22256V4.39849C7.09022 4.10479 6.85214 3.8667 6.55848 3.8667ZM5.80594 6.57764C5.38051 6.57764 5.03754 6.23462 5.03754 5.81187C5.03754 5.38647 5.38051 5.04346 5.80594 5.04346C6.2287 5.04346 6.57172 5.38643 6.57172 5.81187C6.57172 6.23457 6.2287 6.57764 5.80594 6.57764Z" fill="#C19444"/>
<path d="M4.51411 0.531885C4.66113 0.531885 4.78002 0.412939 4.78002 0.265967C4.78002 0.118994 4.66108 0 4.51411 0C2.36127 0 0.609711 1.75073 0.609711 3.90259C0.609711 4.04961 0.728656 4.16851 0.875629 4.16851C1.0226 4.16851 1.14155 4.04956 1.14155 3.90259C1.14164 2.04395 2.65453 0.531885 4.51411 0.531885Z" fill="#C19444"/>
<path d="M4.51411 1.51865C4.66113 1.51865 4.78003 1.39971 4.78003 1.25273C4.78003 1.10576 4.66108 0.986816 4.51411 0.986816C2.90513 0.986816 1.59619 2.29478 1.59619 3.90269C1.59619 4.04971 1.71514 4.1686 1.86211 4.1686C2.00908 4.1686 2.12803 4.04966 2.12803 3.90269C2.12808 2.58818 3.19839 1.51865 4.51411 1.51865Z" fill="#C19444"/>
<path d="M4.78007 2.23906C4.78007 2.09204 4.66113 1.97314 4.51415 1.97314C3.44931 1.97314 2.58286 2.83877 2.58286 3.90264C2.58286 4.04966 2.7018 4.16855 2.84877 4.16855C2.99579 4.16855 3.11469 4.04961 3.11469 3.90264C3.11469 3.13203 3.74243 2.50508 4.51406 2.50508C4.66113 2.50503 4.78007 2.38608 4.78007 2.23906Z" fill="#C19444"/>
<path d="M4.78008 3.22588C4.78008 3.07886 4.66113 2.95996 4.51416 2.95996C3.99341 2.95996 3.56958 3.38281 3.56958 3.90273C3.56958 4.04976 3.68853 4.16865 3.8355 4.16865C3.98247 4.16865 4.10142 4.04971 4.10142 3.90273C4.10142 3.67627 4.28657 3.49185 4.51411 3.49185C4.66113 3.4918 4.78008 3.37285 4.78008 3.22588Z" fill="#C19444"/>
<path d="M22.0472 4.19941V22.6646H22.8423V3.16216C22.8423 2.71265 22.4753 2.3457 22.0258 2.3457H18.1855L21.0658 2.97866C21.6323 3.10361 22.0472 3.61694 22.0472 4.19941Z" fill="#C19444"/>
<path d="M8.65907 3.16216V22.6645H9.45692V3.40952C9.45692 3.26323 9.5766 3.1436 9.72284 3.1436H11.526V2.3457H9.47553C9.02611 2.3457 8.65907 2.7127 8.65907 3.16216Z" fill="#C19444"/>
<path d="M21.5153 22.4423V4.19928C21.5153 3.86417 21.2759 3.57164 20.9515 3.49977L12.3825 1.61153C12.1787 1.58605 12.058 1.71979 12.058 1.87218V24.7335C12.058 24.8931 12.2036 25.0299 12.3825 24.9942C23.7246 22.4971 20.0715 23.3014 20.9868 23.0999C21.2954 23.0319 21.5153 22.7584 21.5153 22.4423ZM13.9647 13.9274C13.9647 14.1676 13.77 14.3623 13.5298 14.3623C13.2896 14.3623 13.095 14.1675 13.095 13.9274V12.6783C13.095 12.4381 13.2896 12.2435 13.5298 12.2435C13.77 12.2435 13.9647 12.4382 13.9647 12.6783V13.9274Z" fill="#C19444"/>
</g>
<defs>
<clipPath id="clip0_1_518">
<rect width="25" height="25" fill="white"/>
</clipPath>
</defs>
</svg>
