<svg width="45" height="59" viewBox="0 0 45 59" fill="none" xmlns="http://www.w3.org/2000/svg">
<path d="M37.1331 43.8312L30.5404 41.6336C29.9675 41.4427 29.5797 40.9188 29.5551 40.3196H39.1607C39.8637 40.3196 40.4336 39.7497 40.4336 39.0467V18.6407C40.4336 8.93728 32.5392 1.04297 22.8358 1.04297C13.1324 1.04297 5.23828 8.93728 5.23828 18.6407V39.0467C5.23828 39.7497 5.80816 40.3196 6.51109 40.3196H16.1167C16.092 40.9188 15.7045 41.4427 15.1314 41.6336L8.53876 43.8312C4.12363 45.303 1.15714 49.4188 1.15714 54.0727V56.7319C1.15714 57.4348 1.72702 58.0047 2.42995 58.0047C3.13288 58.0047 3.70276 57.4348 3.70276 56.7319V54.0727C3.70276 50.5161 5.96972 47.3708 9.34386 46.2461L11.8253 45.4189C15.2894 50.9248 21.897 54.9319 22.1811 55.1025C22.3827 55.2233 22.6093 55.2839 22.836 55.2839C23.0627 55.2839 23.2893 55.2235 23.4909 55.1025C23.775 54.9321 30.3816 50.9255 33.8465 45.4188L36.3283 46.2461C39.7024 47.3708 41.9694 50.5161 41.9694 54.0727V56.7319C41.9694 57.4348 42.5393 58.0047 43.2422 58.0047C43.9452 58.0047 44.515 57.4348 44.515 56.7319V54.0727C44.5149 49.4188 41.5484 45.303 37.1331 43.8312ZM7.7839 18.6407C7.7839 10.3409 14.5363 3.58859 22.836 3.58859C31.1357 3.58859 37.8879 10.3409 37.8879 18.6407V37.7739H29.5503V36.93C32.8272 34.7501 34.9919 31.0253 34.9919 26.8031V22.722C34.9919 21.2764 34.0688 18.9314 26.0869 15.273C21.9903 13.3953 17.9659 12.048 17.7967 11.9917C17.1301 11.7694 16.4092 12.1298 16.1867 12.7968C15.9643 13.4637 16.3248 14.1845 16.9918 14.4068C17.0318 14.4202 21.0537 15.7665 25.0264 17.5873C32.3621 20.9494 32.4464 22.6512 32.4464 22.722V26.8031C32.4464 32.1023 28.1351 36.4136 22.836 36.4136C17.5369 36.4136 13.2256 32.1023 13.2256 26.8031V23.0091C13.2256 22.1835 13.4678 21.3837 13.9256 20.6967L15.7325 17.9865C16.1225 17.4016 15.9645 16.6113 15.3795 16.2215C14.7945 15.8317 14.0044 15.9895 13.6146 16.5745L11.8077 19.2849C11.07 20.3916 10.68 21.6795 10.68 23.0093V26.8033C10.68 31.0255 12.8448 34.7502 16.1215 36.9301V37.7741H7.7839V18.6407ZM22.8353 52.5014C21.2054 51.4266 16.9156 48.3865 14.3206 44.5872L15.9363 44.0485C17.5698 43.5041 18.6671 41.9815 18.6671 40.2598V38.2223C19.9679 38.6987 21.3721 38.959 22.836 38.959C24.2997 38.959 25.7039 38.6988 27.0047 38.2225V40.2598C27.0047 41.9815 28.102 43.5041 29.7355 44.0485L31.3509 44.587C28.7593 48.3792 24.4654 51.4251 22.8353 52.5014Z" fill="#C19444" stroke="white" stroke-width="0.5"/>
<path d="M18.0747 25.3552C18.7776 25.3552 19.3475 24.7853 19.3475 24.0824V22.722C19.3475 22.0191 18.7776 21.4492 18.0747 21.4492C17.3717 21.4492 16.8018 22.0191 16.8018 22.722V24.0824C16.8018 24.7853 17.3716 25.3552 18.0747 25.3552Z" fill="#C19444" stroke="white" stroke-width="0.5"/>
<path d="M27.5973 25.3552C28.3002 25.3552 28.8701 24.7853 28.8701 24.0824V22.722C28.8701 22.0191 28.3002 21.4492 27.5973 21.4492C26.8943 21.4492 26.3245 22.0191 26.3245 22.722V24.0824C26.3245 24.7853 26.8943 25.3552 27.5973 25.3552Z" fill="#C19444" stroke="white" stroke-width="0.5"/>
<path d="M18.9542 29.8099C18.6661 30.4511 18.9522 31.2044 19.5933 31.4927C20.5605 31.9275 21.6818 32.1573 22.836 32.1573C23.9901 32.1573 25.1116 31.9275 26.0786 31.4927C26.7197 31.2046 27.0059 30.4511 26.7177 29.8099C26.4295 29.1687 25.6759 28.8826 25.0349 29.1708C24.3934 29.4591 23.6329 29.6115 22.8358 29.6115C22.0387 29.6115 21.2782 29.4591 20.6367 29.1708C19.9961 28.8828 19.2424 29.1687 18.9542 29.8099Z" fill="#C19444" stroke="white" stroke-width="0.5"/>
</svg>
