<svg width="30" height="30" viewBox="0 0 30 30" fill="none" xmlns="http://www.w3.org/2000/svg">
<g clip-path="url(#clip0_1_6159)">
<path d="M26.8421 24.6033C26.6965 24.6033 26.5487 24.567 26.4127 24.4907C25.9894 24.253 25.8389 23.7173 26.0765 23.294C27.4933 20.7703 28.2422 17.9019 28.2422 14.999C28.2422 12.0964 27.4935 9.22833 26.0769 6.70478C25.8393 6.2815 25.9899 5.74571 26.4132 5.50817C26.8364 5.27051 27.3722 5.42115 27.6098 5.84438C29.1734 8.63014 30 11.7958 30 14.9991C30 18.2027 29.1734 21.3686 27.6094 24.1546C27.448 24.4417 27.1496 24.6033 26.8421 24.6033Z" fill="#C19444"/>
<path d="M23.6658 22.1006C23.5331 22.1006 23.3984 22.0704 23.2717 22.0067C22.838 21.7887 22.6632 21.2604 22.8812 20.8267C23.7963 19.0062 24.2603 17.0457 24.2603 14.9996C24.2603 12.9538 23.7964 10.9935 22.8815 9.17324C22.6636 8.73952 22.8384 8.21123 23.2722 7.99326C23.7058 7.77517 24.2342 7.95014 24.4522 8.38391C25.4912 10.4514 26.0181 12.6772 26.0181 14.9996C26.0181 17.3224 25.4911 19.5486 24.4518 21.6162C24.2974 21.9233 23.9875 22.1006 23.6658 22.1006Z" fill="#C19444"/>
<path d="M20.4489 19.5646C20.3401 19.5646 20.2295 19.5442 20.1224 19.5013C19.6718 19.3207 19.4528 18.8091 19.6333 18.3585C20.0614 17.29 20.2785 16.1597 20.2785 14.9991C20.2785 13.8388 20.0615 12.7088 19.6337 11.6405C19.4532 11.1899 19.6722 10.6782 20.1228 10.4978C20.5734 10.3173 21.085 10.5364 21.2655 10.987C21.777 12.2641 22.0363 13.614 22.0363 14.9992C22.0363 16.3847 21.7768 17.7349 21.2651 19.0122C21.1275 19.3557 20.7976 19.5646 20.4489 19.5646Z" fill="#C19444"/>
<path d="M7.81409 9.56641H2.63675C1.18285 9.56641 0 10.7493 0 12.2032V17.7966C0 19.2505 1.18285 20.4333 2.63675 20.4333H7.6365L7.81409 9.56641Z" fill="#C19444"/>
<path d="M17.3424 3.50755C17.0378 3.36124 16.6763 3.40255 16.4125 3.61378L9.58 9.08521L9.38916 20.7623L16.4125 26.3866C16.5714 26.5138 16.7658 26.5795 16.962 26.5795C17.0913 26.5795 17.2214 26.5509 17.3424 26.4928C17.647 26.3465 17.8408 26.0385 17.8408 25.7005V4.2998C17.8408 3.96183 17.647 3.65386 17.3424 3.50755Z" fill="#C19444"/>
</g>
<defs>
<clipPath id="clip0_1_6159">
<rect width="30" height="30" fill="white"/>
</clipPath>
</defs>
</svg>
