<svg width="13" height="13" viewBox="0 0 13 13" fill="none" xmlns="http://www.w3.org/2000/svg">
<path d="M12.3796 4.13844L8.8588 0.617609C8.83349 0.592507 8.80348 0.572649 8.77048 0.559171C8.73749 0.545693 8.70215 0.538861 8.66651 0.539067H4.33318C4.29753 0.538861 4.2622 0.545693 4.2292 0.559171C4.1962 0.572649 4.16619 0.592507 4.14088 0.617609L0.62005 4.13844C0.594949 4.16375 0.57509 4.19376 0.561612 4.22676C0.548134 4.25976 0.541302 4.29509 0.541508 4.33073V8.66407C0.541302 8.69971 0.548134 8.73504 0.561612 8.76804C0.57509 8.80104 0.594949 8.83105 0.62005 8.85636L4.14088 12.3772C4.16619 12.4023 4.1962 12.4222 4.2292 12.4356C4.2622 12.4491 4.29753 12.4559 4.33318 12.4557H8.66651C8.70215 12.4559 8.73749 12.4491 8.77048 12.4356C8.80348 12.4222 8.83349 12.4023 8.8588 12.3772L12.3796 8.85636C12.4047 8.83105 12.4246 8.80104 12.4381 8.76804C12.4515 8.73504 12.4584 8.69971 12.4582 8.66407V4.33073C12.4584 4.29509 12.4515 4.25976 12.4381 4.22676C12.4246 4.19376 12.4047 4.16375 12.3796 4.13844Z" fill="#999999"/>
<path d="M2.70817 5.41667H3.7915C3.86333 5.41667 3.93222 5.38813 3.98301 5.33734C4.0338 5.28655 4.06234 5.21766 4.06234 5.14583C4.06234 5.074 4.0338 5.00512 3.98301 4.95433C3.93222 4.90353 3.86333 4.875 3.7915 4.875H2.70817C2.45677 4.875 2.21566 4.97487 2.03789 5.15264C1.86012 5.33041 1.76025 5.57151 1.76025 5.82292C1.76025 6.07432 1.86012 6.31543 2.03789 6.4932C2.21566 6.67096 2.45677 6.77083 2.70817 6.77083H3.11442C3.22216 6.77083 3.3255 6.81363 3.40168 6.88982C3.47787 6.96601 3.52067 7.06934 3.52067 7.17708C3.52067 7.28483 3.47787 7.38816 3.40168 7.46435C3.3255 7.54053 3.22216 7.58333 3.11442 7.58333H2.1665C2.09467 7.58333 2.02579 7.61187 1.975 7.66266C1.9242 7.71345 1.89567 7.78234 1.89567 7.85417C1.89567 7.926 1.9242 7.99488 1.975 8.04568C2.02579 8.09647 2.09467 8.125 2.1665 8.125H3.11442C3.36582 8.125 3.60693 8.02513 3.7847 7.84736C3.96247 7.66959 4.06234 7.42849 4.06234 7.17708C4.06234 6.92568 3.96247 6.68457 3.7847 6.5068C3.60693 6.32904 3.36582 6.22917 3.11442 6.22917H2.70817C2.60043 6.22917 2.4971 6.18637 2.42091 6.11018C2.34472 6.03399 2.30192 5.93066 2.30192 5.82292C2.30192 5.71517 2.34472 5.61184 2.42091 5.53565C2.4971 5.45947 2.60043 5.41667 2.70817 5.41667Z" fill="#FAFAFA"/>
<path d="M6.22884 4.875H4.60384C4.53201 4.875 4.46312 4.90353 4.41233 4.95433C4.36154 5.00512 4.33301 5.074 4.33301 5.14583C4.33301 5.21766 4.36154 5.28655 4.41233 5.33734C4.46312 5.38813 4.53201 5.41667 4.60384 5.41667H5.14551V7.85417C5.14551 7.926 5.17404 7.99488 5.22483 8.04568C5.27562 8.09647 5.34451 8.125 5.41634 8.125C5.48817 8.125 5.55706 8.09647 5.60785 8.04568C5.65864 7.99488 5.68717 7.926 5.68717 7.85417V5.41667H6.22884C6.30067 5.41667 6.36956 5.38813 6.42035 5.33734C6.47114 5.28655 6.49967 5.21766 6.49967 5.14583C6.49967 5.074 6.47114 5.00512 6.42035 4.95433C6.36956 4.90353 6.30067 4.875 6.22884 4.875Z" fill="#FAFAFA"/>
<path d="M8.12467 4.875H7.58301C7.36752 4.875 7.16086 4.9606 7.00848 5.11298C6.85611 5.26535 6.77051 5.47201 6.77051 5.6875V7.3125C6.77051 7.52799 6.85611 7.73465 7.00848 7.88702C7.16086 8.0394 7.36752 8.125 7.58301 8.125H8.12467C8.34016 8.125 8.54683 8.0394 8.6992 7.88702C8.85157 7.73465 8.93717 7.52799 8.93717 7.3125V5.6875C8.93717 5.47201 8.85157 5.26535 8.6992 5.11298C8.54683 4.9606 8.34016 4.875 8.12467 4.875ZM8.39551 7.3125C8.39551 7.38433 8.36697 7.45322 8.31618 7.50401C8.26539 7.5548 8.1965 7.58333 8.12467 7.58333H7.58301C7.51118 7.58333 7.44229 7.5548 7.3915 7.50401C7.34071 7.45322 7.31217 7.38433 7.31217 7.3125V5.6875C7.31217 5.61567 7.34071 5.54678 7.3915 5.49599C7.44229 5.4452 7.51118 5.41667 7.58301 5.41667H8.12467C8.1965 5.41667 8.26539 5.4452 8.31618 5.49599C8.36697 5.54678 8.39551 5.61567 8.39551 5.6875V7.3125Z" fill="#FAFAFA"/>
<path d="M10.4268 4.875H9.47884C9.40701 4.875 9.33812 4.90353 9.28733 4.95433C9.23654 5.00512 9.20801 5.074 9.20801 5.14583V7.85417C9.20801 7.926 9.23654 7.99488 9.28733 8.04568C9.33812 8.09647 9.40701 8.125 9.47884 8.125C9.55067 8.125 9.61956 8.09647 9.67035 8.04568C9.72114 7.99488 9.74967 7.926 9.74967 7.85417V6.77083H10.4268C10.6782 6.77083 10.9193 6.67096 11.097 6.4932C11.2748 6.31543 11.3747 6.07432 11.3747 5.82292C11.3747 5.57151 11.2748 5.33041 11.097 5.15264C10.9193 4.97487 10.6782 4.875 10.4268 4.875ZM10.4268 6.22917H9.74967V5.41667H10.4268C10.5345 5.41667 10.6378 5.45947 10.714 5.53565C10.7902 5.61184 10.833 5.71517 10.833 5.82292C10.833 5.93066 10.7902 6.03399 10.714 6.11018C10.6378 6.18637 10.5345 6.22917 10.4268 6.22917Z" fill="#FAFAFA"/>
</svg>
