<svg width="32" height="32" viewBox="0 0 32 32" fill="none" xmlns="http://www.w3.org/2000/svg">
<circle cx="16" cy="16" r="15.5" fill="white" stroke="#C19444"/>
<g clip-path="url(#clip0_2104_10564)">
<path d="M17.0508 24.9287H24.039C24.6486 24.9287 25.1428 24.4351 25.1428 23.8262V11.3916C25.1428 10.7827 24.6486 10.2891 24.039 10.2891H15.0063L17.0508 24.9287Z" fill="#DDDDDD"/>
<path d="M24.0391 10.2891H22.9353C23.5449 10.2891 24.0391 10.7827 24.0391 11.3916V23.8262C24.0391 24.4351 23.5449 24.9287 22.9353 24.9287H24.0391C24.6486 24.9288 25.1428 24.4351 25.1428 23.8262V11.3916C25.1428 10.7827 24.6486 10.2891 24.0391 10.2891Z" fill="#CFCDCD"/>
<path d="M23.1993 15.6205H23.9656C24.0063 15.6205 24.0392 15.5876 24.0392 15.547V14.5903C24.0392 14.5497 24.0063 14.5168 23.9656 14.5168H21.4484C21.4077 14.5168 21.3748 14.4838 21.3748 14.4432V13.7542C21.3748 13.7136 21.3419 13.6807 21.3012 13.6807H20.3446C20.304 13.6807 20.271 13.7136 20.271 13.7542V14.4432C20.271 14.4838 20.2381 14.5168 20.1975 14.5168H17.6803C17.6396 14.5168 17.6067 14.5497 17.6067 14.5903V15.547C17.6067 15.5876 17.6396 15.6205 17.6803 15.6205H21.822C21.8768 15.6205 21.9126 15.6782 21.8879 15.7271C21.6716 16.154 21.3447 16.7025 20.8792 17.2599C20.8499 17.295 20.7953 17.295 20.766 17.2599C20.4815 16.9192 20.2489 16.5821 20.062 16.2743C20.041 16.2397 19.9963 16.2284 19.9615 16.2491L19.1394 16.7383C19.1043 16.7591 19.0926 16.8044 19.1138 16.8393C19.3435 17.2185 19.6345 17.6372 19.9959 18.0586C20.0224 18.0894 20.0195 18.1361 19.9885 18.1625C19.468 18.6068 18.8407 19.0147 18.0902 19.3212C18.0528 19.3365 18.0344 19.3787 18.0493 19.4163L18.4018 20.3056C18.4169 20.3436 18.4602 20.3623 18.498 20.3469C19.3258 20.0098 20.0917 19.5349 20.7734 18.9413C20.8011 18.9171 20.8419 18.9171 20.8696 18.9412C21.486 19.4793 22.2377 19.9765 23.1478 20.3468C23.1857 20.3622 23.229 20.3436 23.2441 20.3056L23.5967 19.4162C23.6115 19.3787 23.5931 19.3365 23.5557 19.3212C22.8048 19.0144 22.1774 18.6063 21.6569 18.1622C21.626 18.1358 21.6229 18.0894 21.6495 18.0586C21.8674 17.8051 22.073 17.5371 22.2649 17.2553C22.6997 16.6166 22.9757 16.0395 23.1313 15.6659C23.1428 15.6385 23.1695 15.6205 23.1993 15.6205Z" fill="#607D8B"/>
<path d="M19.9707 21.3169L15.1861 7.26175C15.1473 7.14786 15.0403 7.07129 14.9199 7.07129H7.96093C7.35136 7.07129 6.85718 7.56493 6.85718 8.17382V20.2143C6.85718 20.8233 7.35136 21.3169 7.96093 21.3169H19.9707Z" fill="#2196F3"/>
<path d="M19.9707 21.3164L17.051 24.928L15.48 21.3164H19.9707Z" fill="#1565C0"/>
<path d="M15.0377 13.8843C15.0648 13.8843 15.0868 13.9063 15.0868 13.9334V14.4492C15.0868 14.6422 15.0689 14.831 15.0345 15.0141C14.7684 16.4363 13.5154 17.5111 12.0136 17.5008C10.3284 17.4892 8.97969 16.1275 8.98341 14.4423C8.98712 12.7601 10.352 11.3975 12.0351 11.3975C12.8597 11.3975 13.6079 11.7246 14.1572 12.256C14.177 12.2751 14.1775 12.3067 14.158 12.3262L13.4283 13.0559C13.4095 13.0747 13.3792 13.0752 13.3599 13.0569C13.0152 12.7287 12.5487 12.5272 12.0351 12.5272C10.9745 12.5272 10.1204 13.3752 10.1133 14.4358C10.106 15.5034 10.9693 16.371 12.0351 16.371C12.8999 16.371 13.6313 15.7997 13.8725 15.014H12.0842C12.0571 15.014 12.0351 14.992 12.0351 14.9649V13.9334C12.0351 13.9063 12.0571 13.8843 12.0842 13.8843H15.0377V13.8843Z" fill="#F5F5F5"/>
</g>
<defs>
<clipPath id="clip0_2104_10564">
<rect width="18.2857" height="18.2857" fill="white" transform="translate(6.85718 6.85742)"/>
</clipPath>
</defs>
</svg>
