<svg width="27" height="27" viewBox="0 0 27 27" fill="none" xmlns="http://www.w3.org/2000/svg">
<path d="M12.3174 22.6562H7.83306C7.51728 22.6562 7.26074 22.9128 7.26074 23.2286C7.26074 23.5444 7.51728 23.8009 7.83306 23.8009H12.3174C12.6331 23.8009 12.8897 23.5444 12.8897 23.2286C12.8897 22.9128 12.6338 22.6562 12.3174 22.6562Z" fill="#C19444"/>
<path d="M6.00167 21.6499L4.03491 20.5214C3.76087 20.3639 3.41075 20.4588 3.25387 20.7329C3.09631 21.0069 3.19125 21.357 3.46529 21.5139L5.43205 22.6424C5.5216 22.6942 5.6199 22.7185 5.71619 22.7185C5.91481 22.7185 6.10738 22.6155 6.21309 22.431C6.37065 22.1569 6.27571 21.8068 6.00167 21.6499Z" fill="#C19444"/>
<path d="M16.1142 20.5211L14.1474 21.6503C13.8734 21.8078 13.7784 22.1573 13.936 22.4313C14.0417 22.6158 14.2343 22.7188 14.4329 22.7188C14.5299 22.7188 14.6275 22.6946 14.717 22.6427L16.6838 21.5143C16.9578 21.3567 17.0528 21.0073 16.8952 20.7332C16.7377 20.4585 16.3882 20.3642 16.1142 20.5211Z" fill="#C19444"/>
<path d="M19.4683 0C15.6876 0 12.5486 2.80032 12.0167 6.43623H4.00354C2.87372 6.43623 1.95464 7.35531 1.95464 8.48514V8.93895H1.30489C0.585112 8.93895 0 9.52407 0 10.2438V12.4193C0 13.1391 0.585112 13.7242 1.30489 13.7242C1.62067 13.7242 1.87721 13.4677 1.87721 13.1519C1.87721 12.8361 1.62067 12.5796 1.30489 12.5796C1.21803 12.5796 1.14464 12.5062 1.14464 12.4193V10.2438C1.14464 10.157 1.21803 10.0836 1.30489 10.0836H1.95464V23.2914C1.95464 23.7876 2.13172 24.2428 2.42596 24.5976V26.4277C2.42596 26.7435 2.68249 27 2.99828 27H5.33671C5.65249 27 5.90903 26.7435 5.90903 26.4277V25.3403H14.2406V26.4277C14.2406 26.7435 14.4972 27 14.813 27H17.1514C17.4672 27 17.7237 26.7435 17.7237 26.4277V24.5976C18.018 24.2428 18.195 23.7876 18.195 23.2914V14.955C18.6091 15.0257 19.0347 15.0634 19.4683 15.0634C23.6213 15.0634 27 11.6847 27 7.53172C27 3.3787 23.6213 0 19.4683 0ZM15.559 13.9666V16.2492C15.559 16.569 15.5146 16.6087 14.9624 16.7831L14.8628 16.8147C14.5955 16.9002 12.1298 17.5365 10.3267 17.5365C10.2533 17.5365 10.1745 17.5345 10.0917 17.5311C10.0748 17.5305 10.058 17.5305 10.0412 17.5311C9.95903 17.5345 9.87958 17.5365 9.80618 17.5365C8.00237 17.5365 5.53736 16.9002 5.27005 16.8147L5.1704 16.7831C4.61828 16.6087 4.57317 16.569 4.57317 16.2492V10.5024C4.57317 10.4075 4.6506 10.3307 4.74486 10.3307H12.4766C13.0873 11.849 14.1774 13.1243 15.559 13.9666ZM4.76506 25.8554H3.57127V25.2938C3.71065 25.3241 3.85541 25.3403 4.00421 25.3403H4.76506V25.8554ZM15.3853 25.8554V25.3403H16.1461C16.2949 25.3403 16.4397 25.3241 16.5791 25.2938V25.8554H15.3853ZM17.0504 23.2914C17.0504 23.7903 16.6444 24.1956 16.1461 24.1956H4.00354C3.50461 24.1956 3.09928 23.7896 3.09928 23.2914V8.48514C3.09928 7.98621 3.50529 7.58087 4.00354 7.58087H11.9379C11.9386 7.67514 11.9406 7.7694 11.9453 7.86299H7.18968C6.87389 7.86299 6.61736 8.11953 6.61736 8.43531C6.61736 8.7511 6.87389 9.00763 7.18968 9.00763H12.0833C12.0955 9.06756 12.1083 9.12748 12.121 9.18673H4.74554C4.0197 9.18673 3.4292 9.77723 3.4292 10.5031V16.2498C3.4292 17.4342 4.30384 17.7103 4.82633 17.8752L4.9206 17.9048C5.22224 18.0018 7.83067 18.6812 9.80686 18.6812C9.88968 18.6812 9.97653 18.6792 10.0668 18.6758C10.157 18.6792 10.2445 18.6812 10.3273 18.6812C12.3028 18.6812 14.9113 18.0011 15.2136 17.9048L15.3079 17.8752C15.8303 17.7103 16.705 17.4342 16.705 16.2498V14.5376C16.8195 14.5827 16.9346 14.6251 17.0517 14.6648V23.2914H17.0504ZM19.4683 13.9181C15.9468 13.9181 13.0812 11.0532 13.0812 7.53105C13.0812 4.0096 15.9462 1.14397 19.4683 1.14397C22.9897 1.14397 25.8554 4.00893 25.8554 7.53105C25.8554 11.0532 22.9904 13.9181 19.4683 13.9181Z" fill="#C19444"/>
<path d="M22.2819 8.72311L20.0411 7.23037V2.23638C20.0411 1.9206 19.7846 1.66406 19.4688 1.66406C19.153 1.66406 18.8965 1.9206 18.8965 2.23638V7.53606C18.8965 7.72728 18.9921 7.90638 19.1517 8.01209L21.6477 9.67518C21.7453 9.7405 21.8557 9.77147 21.9648 9.77147C22.15 9.77147 22.3311 9.68192 22.4415 9.51628C22.6159 9.25369 22.5445 8.89818 22.2819 8.72311Z" fill="#C19444"/>
</svg>
