<svg width="50" height="50" viewBox="0 0 50 50" fill="none" xmlns="http://www.w3.org/2000/svg">
<g clip-path="url(#clip0_1_2847)">
<path d="M49.3197 39.6485L29.6208 5.04768C27.614 1.52259 22.3863 1.5218 20.3789 5.04768L19.2956 6.95058C18.8417 7.74779 20.0954 8.50952 20.5697 7.67595L21.653 5.77314C23.1052 3.22228 26.8943 3.22238 28.3466 5.77314L48.0456 40.3738C49.488 42.9076 47.6005 46.1305 44.6988 46.1305H5.30112C2.39935 46.1305 0.51189 42.9076 1.95432 40.3738L18.6615 11.0276C19.1155 10.2304 17.8621 9.4688 17.3874 10.3023L0.680109 39.6485C-1.30451 43.1344 1.30118 47.5965 5.30102 47.5965H44.6987C48.6984 47.5966 51.3047 43.1351 49.3197 39.6485Z" fill="#C19444"/>
<path d="M42.2583 36.3043C42.6101 36.104 42.7329 35.6564 42.5326 35.3044L26.3493 6.87891C25.771 5.85825 24.2364 5.84965 23.6519 6.87636L3.95351 41.4763C3.37837 42.484 4.13042 43.8007 5.30063 43.8007H44.6991C45.8607 43.8007 46.6241 42.4921 46.0471 41.4777L44.4535 38.6787C43.9996 37.8813 42.7048 38.5706 43.1794 39.4041L44.7728 42.2028C44.811 42.2701 44.7595 42.3344 44.6991 42.3344H5.30073C5.24032 42.3344 5.18862 42.2702 5.22732 42.2023L24.9261 7.60183C24.9613 7.53966 25.0396 7.54181 25.0744 7.603L41.2585 36.03C41.4588 36.3817 41.9065 36.5046 42.2583 36.3043Z" fill="#C19444"/>
<path d="M27.6857 20.3181C27.6857 18.822 26.4809 17.6047 24.9998 17.6047C23.5188 17.6047 22.314 18.822 22.314 20.3181V29.604C22.314 31.1001 23.5188 32.3174 24.9998 32.3174C26.4809 32.3174 27.6857 31.1001 27.6857 29.604V20.3181ZM26.2195 29.604C26.2195 30.2917 25.6723 30.8512 24.9998 30.8512C24.3274 30.8512 23.7802 30.2917 23.7802 29.604V20.3181C23.7802 19.6304 24.3274 19.0709 24.9998 19.0709C25.6723 19.0709 26.2195 19.6304 26.2195 20.3181V29.604Z" fill="#C19444"/>
<path d="M24.9999 33.6406C23.519 33.6406 22.3141 34.8578 22.3141 36.354C22.3141 37.8502 23.5189 39.0674 24.9999 39.0674C26.481 39.0674 27.6858 37.8502 27.6858 36.354C27.6858 34.8578 26.4809 33.6406 24.9999 33.6406ZM24.9999 37.6012C24.3274 37.6012 23.7803 37.0417 23.7803 36.3539C23.7803 35.6662 24.3274 35.1067 24.9999 35.1067C25.6724 35.1067 26.2196 35.6662 26.2196 36.3539C26.2196 37.0417 25.6724 37.6012 24.9999 37.6012Z" fill="#C19444"/>
<path d="M40.1436 15.0678C42.6004 15.6256 44.1653 18.0806 43.632 20.5408C43.4409 21.4231 44.8526 21.8306 45.0649 20.8514C45.7676 17.6088 43.7056 14.3729 40.4682 13.6381C39.5737 13.4343 39.2083 14.8555 40.1436 15.0678Z" fill="#C19444"/>
<path d="M41.1479 10.9796C45.8076 12.0372 48.7756 16.694 47.7641 21.3603C47.573 22.2426 48.9847 22.6503 49.197 21.671C50.3782 16.2221 46.9129 10.7846 41.4724 9.54975C40.5779 9.34576 40.2126 10.7672 41.1479 10.9796Z" fill="#C19444"/>
<path d="M4.93496 20.8514C5.13309 21.7652 6.56897 21.4687 6.36791 20.5407C5.83471 18.0807 7.39961 15.6255 9.85625 15.0678C10.7508 14.8647 10.4668 13.4246 9.53173 13.638C6.29431 14.3729 4.23217 17.6088 4.93496 20.8514Z" fill="#C19444"/>
<path d="M1.51857 22.2489C1.97631 22.2489 2.33387 21.8133 2.23573 21.3604C1.22416 16.694 4.1923 12.0372 8.85192 10.9796C9.74649 10.7765 9.46244 9.33645 8.5274 9.54982C3.0869 10.7846 -0.378276 16.2222 0.802782 21.671C0.877264 22.0144 1.18096 22.2489 1.51857 22.2489Z" fill="#C19444"/>
</g>
<defs>
<clipPath id="clip0_1_2847">
<rect width="50" height="50" fill="white"/>
</clipPath>
</defs>
</svg>
