<svg width="17" height="17" viewBox="0 0 17 17" fill="none" xmlns="http://www.w3.org/2000/svg">
<path d="M6.6112 8.5026C8.14646 8.5026 9.39499 7.23185 9.39499 5.66927C9.39499 4.10669 8.14646 2.83594 6.6112 2.83594C5.07594 2.83594 3.82741 4.10669 3.82741 5.66927C3.82741 7.23185 5.07594 8.5026 6.6112 8.5026ZM7.65512 9.21094H5.56728C3.26439 9.21094 1.3916 11.1171 1.3916 13.4609V14.1693H11.8308V13.4609C11.8308 11.1171 9.95801 9.21094 7.65512 9.21094Z" fill="#C19444"/>
<path d="M11.5556 7.82385C11.9794 7.08866 12.1625 6.23528 12.0782 5.38719C11.9537 4.12352 11.2605 3.00648 10.1275 2.24219L9.35847 3.42227C10.1372 3.94785 10.6112 4.69656 10.6933 5.52885C10.7312 5.91567 10.6839 6.30622 10.5548 6.67209C10.4257 7.03796 10.2182 7.36996 9.94724 7.64394L9.11768 8.48827L10.2437 8.82473C13.189 9.70306 13.2231 12.7177 13.2231 12.7482H14.615C14.615 11.481 13.9496 9.00465 11.5556 7.82385Z" fill="#C19444"/>
</svg>
