<svg width="31" height="35" viewBox="0 0 31 35" fill="none" xmlns="http://www.w3.org/2000/svg">
<path d="M28.342 13.4613L7.67007 0.71875C6.1745 -0.201984 4.36633 -0.240265 2.83309 0.616348C1.29986 1.47282 0.384521 3.03286 0.384521 4.78908V30.1581C0.384521 32.8136 2.52417 34.9856 5.15396 35C5.16114 35 5.16832 35 5.17536 35C5.99718 35 6.85359 34.7424 7.65346 34.2543C8.29693 33.8617 8.5003 33.0218 8.10771 32.3784C7.71512 31.7349 6.87512 31.5316 6.23186 31.9242C5.85773 32.1524 5.49234 32.2704 5.16866 32.2704C4.17642 32.265 3.11405 31.415 3.11405 30.1582V4.78915C3.11405 4.03576 3.50671 3.36672 4.16432 2.99929C4.82201 2.63186 5.59755 2.64827 6.23828 3.04277L26.9103 15.7853C27.5316 16.1679 27.8871 16.8057 27.8856 17.5354C27.8841 18.265 27.526 18.9014 26.9012 19.2827L11.9553 28.4338C11.3125 28.8274 11.1104 29.6676 11.504 30.3104C11.8976 30.9533 12.7378 31.1553 13.3806 30.7617L28.3248 21.6117C29.7556 20.7388 30.6119 19.2171 30.6153 17.5409C30.6187 15.8648 29.7686 14.3396 28.342 13.4613Z" fill="white"/>
</svg>
