<svg width="15" height="15" viewBox="0 0 15 15" fill="none" xmlns="http://www.w3.org/2000/svg">
<g clip-path="url(#clip0_1_1561)">
<path d="M2.7757 8.67727C2.51739 8.83049 2.34375 9.11209 2.34375 9.43359C2.34375 9.91822 2.73803 10.3125 3.22266 10.3125C3.60457 10.3125 3.93023 10.0675 4.05117 9.72656H6.32812C6.81275 9.72656 7.20703 10.1208 7.20703 10.6055C7.20703 11.0901 6.81275 11.4844 6.32812 11.4844H2.8125C2.00479 11.4844 1.34766 12.1415 1.34766 12.9492C1.34766 13.7569 2.00479 14.4141 2.8125 14.4141H5.74219C5.90399 14.4141 6.03516 14.2829 6.03516 14.1211C6.03516 13.9593 5.90399 13.8281 5.74219 13.8281H2.8125C2.32787 13.8281 1.93359 13.4338 1.93359 12.9492C1.93359 12.4646 2.32787 12.0703 2.8125 12.0703H6.32812C7.13584 12.0703 7.79297 11.4132 7.79297 10.6055C7.79297 9.79775 7.13584 9.14062 6.32812 9.14062H4.05117C3.98188 8.94527 3.84542 8.78153 3.66961 8.67727L5.90725 5.0059C6.25925 4.4768 6.44531 3.86027 6.44531 3.22266C6.44531 1.44568 4.99963 0 3.22266 0C1.44568 0 0 1.44568 0 3.22266C0 3.86027 0.186064 4.4768 0.538066 5.0059L2.7757 8.67727ZM3.22266 9.72656C3.06111 9.72656 2.92969 9.59514 2.92969 9.43359C2.92969 9.27205 3.06111 9.14062 3.22266 9.14062C3.3842 9.14062 3.51562 9.27205 3.51562 9.43359C3.51562 9.59514 3.3842 9.72656 3.22266 9.72656ZM3.22266 0.585938C4.67654 0.585938 5.85938 1.76877 5.85938 3.22266C5.85938 3.74613 5.70624 4.252 5.41655 4.6856C5.4143 4.68896 5.4121 4.69239 5.40999 4.69588L3.22266 8.28472C3.22266 8.28472 1.03102 4.68896 1.02876 4.6856C0.739072 4.252 0.585938 3.74613 0.585938 3.22266C0.585938 1.76877 1.76877 0.585938 3.22266 0.585938Z" fill="#C19444"/>
<path d="M3.22266 4.6875C4.03037 4.6875 4.6875 4.03037 4.6875 3.22266C4.6875 2.41494 4.03037 1.75781 3.22266 1.75781C2.41494 1.75781 1.75781 2.41494 1.75781 3.22266C1.75781 4.03037 2.41494 4.6875 3.22266 4.6875ZM3.22266 2.34375C3.70729 2.34375 4.10156 2.73803 4.10156 3.22266C4.10156 3.70729 3.70729 4.10156 3.22266 4.10156C2.73803 4.10156 2.34375 3.70729 2.34375 3.22266C2.34375 2.73803 2.73803 2.34375 3.22266 2.34375Z" fill="#C19444"/>
<path d="M11.7773 4.85938C10.0004 4.85938 8.55469 6.30506 8.55469 8.08203C8.55469 8.72067 8.74134 9.33814 9.09445 9.86779L11.3237 13.3647C11.1511 13.4691 11.0173 13.6313 10.9489 13.8242H8.37891C8.2171 13.8242 8.08594 13.9554 8.08594 14.1172C8.08594 14.279 8.2171 14.4102 8.37891 14.4102H10.9488C11.0698 14.7511 11.3954 14.9961 11.7773 14.9961C12.262 14.9961 12.6562 14.6018 12.6562 14.1172C12.6562 13.7984 12.4857 13.5188 12.231 13.3647L14.4603 9.86779C14.8133 9.33814 15 8.72067 15 8.08203C15 6.30506 13.5543 4.85938 11.7773 4.85938ZM11.7773 14.4102C11.6158 14.4102 11.4844 14.2787 11.4844 14.1172C11.4844 13.9556 11.6158 13.8242 11.7773 13.8242C11.9389 13.8242 12.0703 13.9556 12.0703 14.1172C12.0703 14.2787 11.9389 14.4102 11.7773 14.4102ZM13.9712 9.54497C13.9701 9.54673 11.7773 12.9862 11.7773 12.9862C11.7773 12.9862 9.58459 9.5467 9.58345 9.54497C9.29376 9.11138 9.14062 8.60551 9.14062 8.08203C9.14062 6.62814 10.3235 5.44531 11.7773 5.44531C13.2312 5.44531 14.4141 6.62814 14.4141 8.08203C14.4141 8.60551 14.2609 9.11138 13.9712 9.54497Z" fill="#C19444"/>
<path d="M11.7773 6.625C10.9696 6.625 10.3125 7.28213 10.3125 8.08984C10.3125 8.89756 10.9696 9.55469 11.7773 9.55469C12.5851 9.55469 13.2422 8.89756 13.2422 8.08984C13.2422 7.28213 12.5851 6.625 11.7773 6.625ZM11.7773 8.96875C11.2927 8.96875 10.8984 8.57447 10.8984 8.08984C10.8984 7.60521 11.2927 7.21094 11.7773 7.21094C12.262 7.21094 12.6562 7.60521 12.6562 8.08984C12.6562 8.57447 12.262 8.96875 11.7773 8.96875Z" fill="#C19444"/>
<path d="M7.06055 14.4141C7.22235 14.4141 7.35352 14.2829 7.35352 14.1211C7.35352 13.9593 7.22235 13.8281 7.06055 13.8281C6.89874 13.8281 6.76758 13.9593 6.76758 14.1211C6.76758 14.2829 6.89874 14.4141 7.06055 14.4141Z" fill="#C19444"/>
</g>
<defs>
<clipPath id="clip0_1_1561">
<rect width="15" height="15" fill="white"/>
</clipPath>
</defs>
</svg>
