<svg width="78" height="78" viewBox="0 0 78 78" fill="none" xmlns="http://www.w3.org/2000/svg">
<g clip-path="url(#clip0_496_597)">
<path d="M41.4198 43.3847C44.0446 43.3847 46.1801 41.2492 46.1801 38.6244C46.1801 38.0021 45.6758 37.4976 45.0533 37.4976C44.4309 37.4976 43.9265 38.0021 43.9265 38.6244C43.9265 40.0066 42.8021 41.1311 41.4198 41.1311C40.0374 41.1311 38.9129 40.0066 38.9129 38.6244C38.9129 38.0021 38.4084 37.4976 37.7861 37.4976C37.1638 37.4976 36.6593 38.0021 36.6593 38.6244C36.6593 41.2492 38.7948 43.3847 41.4198 43.3847Z" fill="#C19444"/>
<path d="M49.7709 34.4033C50.3933 34.4033 50.8977 33.8988 50.8977 33.2765V31.2526H51.0614C51.6839 31.2526 52.1882 30.7481 52.1882 30.1258C52.1882 29.5035 51.6839 28.999 51.0614 28.999H49.7709C49.1484 28.999 48.6441 29.5035 48.6441 30.1258V33.2765C48.6441 33.8988 49.1484 34.4033 49.7709 34.4033Z" fill="#C19444"/>
<path d="M31.7779 31.2526H31.9416V33.2765C31.9416 33.8988 32.4461 34.4033 33.0684 34.4033C33.6907 34.4033 34.1952 33.8988 34.1952 33.2765V30.1258C34.1952 29.5035 33.6907 28.999 33.0684 28.999H31.7779C31.1556 28.999 30.6511 29.5035 30.6511 30.1258C30.6511 30.7481 31.1556 31.2526 31.7779 31.2526Z" fill="#C19444"/>
<path d="M59.2411 37.3435C63.3081 36.8999 65.4917 33.5995 65.4917 30.4797V30.4441C65.4917 28.3478 64.544 26.3854 62.9328 25.0772V21.6131C62.9328 9.54041 53.1184 0.173828 41.4935 0.173828C35.2402 0.173828 29.3185 2.84841 25.247 7.51172C24.8376 7.98047 24.886 8.69231 25.3547 9.10156C25.8235 9.51097 26.5353 9.46274 26.9446 8.99384C30.588 4.82091 35.8911 2.42743 41.4935 2.42743C51.8956 2.42743 60.6792 10.8081 60.6792 21.6131V24.5128C59.6929 24.5128 52.95 24.5128 51.8795 24.5128C46.774 24.5128 42.6203 20.3592 42.6203 15.2536C42.6203 14.6313 42.116 14.1268 41.4935 14.1268C40.8711 14.1268 40.3667 14.6313 40.3667 15.2536C40.3667 19.5167 37.3942 23.2036 33.4014 24.2248C31.915 24.605 31.8193 24.5128 22.2127 24.5128V21.6131C22.2127 18.6316 22.8798 15.7715 24.1953 13.1121C24.4711 12.5544 24.2426 11.8785 23.6849 11.6025C23.1269 11.3265 22.4513 11.5551 22.1753 12.1128C20.7048 15.0856 19.9593 18.282 19.9591 21.6131V25.0772C18.348 26.3854 17.4002 28.3478 17.4002 30.4441V30.4797C17.4002 32.1657 18.0338 33.8245 19.1448 35.0738C15.2532 38.018 12.9698 42.5663 12.9698 47.5098V65.3885C12.9698 66.6569 14.0041 67.6438 15.2251 67.6438C16.5808 67.6438 17.9151 67.4682 19.2103 67.1267V75.9701C19.2103 76.5924 19.7148 77.0969 20.3371 77.0969H47.1609C47.7833 77.0969 48.2877 76.5924 48.2877 75.9701C48.2877 75.3478 47.7833 74.8433 47.1609 74.8433H27.5487V56.2458C27.756 56.2453 27.8947 56.2456 28.9802 56.2464C29.0889 56.3706 30.5047 57.7465 30.9055 58.1321L32.5099 63.3266C33.7342 67.2909 37.3466 69.9193 41.4461 69.9193C45.5398 69.9193 49.1561 67.2964 50.3822 63.3266L51.994 58.1079C53.7239 56.4386 53.8242 56.3498 53.9142 56.2467H55.3433V74.8433H52.4193C51.7969 74.8433 51.2925 75.3478 51.2925 75.9701C51.2925 76.5924 51.7969 77.0969 52.4193 77.0969H62.5548C63.1773 77.0969 63.6816 76.5924 63.6816 75.9701V61.9393C63.6816 57.8562 60.7052 54.5347 56.6047 54.0413C56.6025 54.041 56.6001 54.0412 56.5978 54.0409C56.5952 54.0406 56.5928 54.04 56.5903 54.0397C56.0382 53.9805 55.896 53.9932 53.7237 53.9932C53.5662 53.8648 53.8771 54.0553 49.6617 51.62V49.7076C54.4764 47.27 58.0658 42.7521 59.2411 37.3435ZM61.4279 61.9393V74.8433H57.5967V56.5676C59.8771 57.3558 61.4279 59.4504 61.4279 61.9393ZM61.4415 26.7664C62.5723 27.6481 63.2381 28.9999 63.2381 30.4441V30.4797C63.2381 32.4141 61.9704 34.4524 59.5943 34.9997C59.6541 34.2147 59.6556 33.7112 59.6556 33.2692C59.6627 32.6107 59.6648 27.3556 59.6423 26.7664H61.4415ZM34.5526 26.2383C37.5984 25.2823 40.1166 23.1022 41.4941 20.2209C41.4956 20.224 41.4973 20.227 41.4988 20.2302C43.4043 24.189 47.4216 26.7664 51.8795 26.7664H57.3857C57.4076 27.258 57.402 26.8965 57.402 33.2773C57.294 42.9141 49.7826 49.4025 41.4799 49.4025C32.8054 49.4025 26.162 42.7894 25.4977 34.8084C25.4968 34.7975 25.4956 34.7865 25.4947 34.7754C25.4055 33.6753 25.4361 27.2619 25.4582 26.7662C31.5452 26.7664 32.4456 26.9002 34.5526 26.2383ZM42.4252 67.5981C41.7978 67.6854 41.1152 67.688 40.4672 67.5981C40.4662 67.598 40.465 67.5978 40.4639 67.5977L40.8236 65.5618H42.0673L42.4271 67.5977C42.4265 67.598 42.4258 67.5981 42.4252 67.5981ZM41.4455 60.4677L42.8445 61.6955L42.2338 63.3081H40.6571L40.0464 61.6955C40.1983 61.5621 41.2924 60.602 41.4455 60.4677ZM39.7725 58.9374L37.2745 61.1295C37.2743 61.1294 32.6713 56.6875 32.6713 56.6875L31.2827 55.3477L34.1934 53.6662C36.8172 56.145 36.1031 55.4703 39.7725 58.9374ZM33.2302 51.62L30.811 53.0176C30.8535 52.3466 30.8437 52.3978 30.8437 48.2943C31.5984 48.8319 32.3963 49.3122 33.2302 49.7312V51.62ZM19.6537 30.4441C19.6537 28.9999 20.3196 27.6481 21.4503 26.7664H23.2018C23.2015 26.7751 23.2016 26.7835 23.2013 26.7922C23.1836 27.2919 23.1884 26.8163 23.1884 33.4805C23.1884 33.9017 23.2081 34.4686 23.2516 34.9959C21.1019 34.4929 19.6537 32.6504 19.6537 30.4797V30.4441ZM15.2369 65.3885C15.2326 65.3885 15.2278 65.3885 15.2234 65.3885V47.5098C15.2234 43.0837 17.3627 39.0272 20.9805 36.5261C21.7922 36.9648 22.7115 37.2372 23.6025 37.3412C24.3723 40.8858 26.1905 44.0353 28.5901 46.4087V52.0249C28.5901 52.6831 28.5416 53.3418 28.4455 53.9923C26.9031 53.9913 26.7716 53.989 26.3023 54.0395C26.3021 54.0395 26.3018 54.0395 26.3017 54.0395C26.3009 54.0395 26.3003 54.0397 26.2996 54.0397C22.258 54.4806 19.2102 57.8767 19.2102 61.9392V64.7852C17.9286 65.1856 16.596 65.3885 15.2369 65.3885ZM21.4639 61.9393C21.4639 59.4934 23.0227 57.3415 25.2951 56.5601V74.8433H21.4639C21.4639 73.2876 21.4639 63.4575 21.4639 61.9393ZM34.2592 61.3541C34.8096 61.8837 35.4163 62.4682 36.0847 63.1131C36.7898 63.7934 37.6577 63.7414 38.2363 63.2794L38.7151 64.5437L38.2927 66.9337C35.2772 65.4465 34.706 62.8008 34.2592 61.3541ZM44.5985 66.9342L44.1759 64.5431L44.6547 63.2789C45.2796 63.7784 46.1675 63.7306 46.7347 63.1833H46.7345L48.6337 61.3505C48.2057 62.7366 47.6444 65.4324 44.5985 66.9342ZM50.2204 56.6875C50.2202 56.6875 45.6172 61.1295 45.6172 61.1295L43.1193 58.9374C43.7513 58.3401 48.1526 54.1815 48.6983 53.666L51.6089 55.3475L50.2204 56.6875ZM47.408 50.6678V51.7849L41.4459 57.418C40.3187 56.3531 36.5989 52.8383 35.4836 51.7849V50.6847C37.3071 51.3093 39.3355 51.6564 41.364 51.6564C43.3583 51.6563 45.367 51.3735 47.408 50.6678Z" fill="#C19444"/>
</g>
<defs>
<clipPath id="clip0_496_597">
<rect width="76.9231" height="76.9231" fill="white" transform="translate(0.76923 0.173828)"/>
</clipPath>
</defs>
</svg>
