<svg width="17" height="18" viewBox="0 0 17 18" fill="none" xmlns="http://www.w3.org/2000/svg">
<path fill-rule="evenodd" clip-rule="evenodd" d="M0.686279 0H14.6202V2.5H13.7213V1H1.58524V12.5H11.1983V13.5H0.686279V0ZM14.1707 6.5C14.5284 6.5 14.8713 6.34196 15.1242 6.06066C15.3771 5.77936 15.5192 5.39782 15.5192 5C15.5192 4.60218 15.3771 4.22064 15.1242 3.93934C14.8713 3.65804 14.5284 3.5 14.1707 3.5C13.8131 3.5 13.4701 3.65804 13.2172 3.93934C12.9644 4.22064 12.8223 4.60218 12.8223 5C12.8223 5.39782 12.9644 5.77936 13.2172 6.06066C13.4701 6.34196 13.8131 6.5 14.1707 6.5ZM15.0836 7.505C15.6675 7.505 16.1296 7.797 16.4321 8.248C16.7148 8.6705 16.8344 9.193 16.8613 9.6755C16.8878 10.1704 16.8271 10.6664 16.6829 11.1355C16.548 11.5705 16.3202 12.0205 15.9687 12.329V17.25C15.969 17.4384 15.9055 17.6201 15.7909 17.7589C15.6763 17.8976 15.519 17.9833 15.3501 17.9989C15.1813 18.0144 15.0134 17.9587 14.8798 17.8429C14.7463 17.727 14.6568 17.5594 14.6292 17.3735L14.0494 13.5H13.9154L13.2601 17.388C13.229 17.5715 13.1374 17.7355 13.0034 17.8479C12.8693 17.9603 12.7024 18.013 12.5352 17.9958C12.3681 17.9785 12.2127 17.8925 12.0996 17.7546C11.9864 17.6167 11.9236 17.4367 11.9233 17.25V10.1165C11.8334 10.2688 11.7447 10.422 11.6572 10.576L11.6222 10.6375L11.6132 10.6535L11.6109 10.658C11.5504 10.7662 11.466 10.8554 11.3658 10.9173C11.2656 10.9791 11.1529 11.0116 11.0383 11.0115H8.79089C8.61207 11.0115 8.44058 10.9325 8.31414 10.7918C8.1877 10.6512 8.11666 10.4604 8.11666 10.2615C8.11666 10.0626 8.1877 9.87182 8.31414 9.73117C8.44058 9.59052 8.61207 9.5115 8.79089 9.5115H10.6684C10.7776 9.3235 10.9214 9.0795 11.0725 8.8345C11.2298 8.579 11.4033 8.3085 11.5579 8.0965C11.633 7.993 11.717 7.885 11.8015 7.7965C11.8429 7.753 11.9004 7.6965 11.9705 7.6465C12.0943 7.55615 12.2387 7.50721 12.3867 7.5055H15.0836V7.505Z" fill="#C19444"/>
</svg>
